<?xml version="1.0" encoding="UTF-8"?>
<svg width="25px" height="25px" viewBox="0 0 25 25" version="1.1" xmlns="http://www.w3.org/2000/svg" xmlns:xlink="http://www.w3.org/1999/xlink">
    <title>maps-pin-1.1</title>
    <g id="CELESTIA" stroke="none" stroke-width="1" fill="none" fill-rule="evenodd" stroke-linecap="round" stroke-linejoin="round">
        <g id="EVENT" transform="translate(-725.000000, -649.000000)" stroke="#000000" stroke-width="1.5">
            <g id="Group-7" transform="translate(227.000000, 523.000000)">
                <g id="Group-16" transform="translate(485.000000, 113.000000)">
                    <g id="maps-pin-1.1" transform="translate(14.000000, 14.000000)">
                        <line x1="7.00000016" y1="4.886" x2="7.00000016" y2="20.771" id="Path"></line>
                        <line x1="14.0000002" y1="9.886" x2="14.0000002" y2="0" id="Path"></line>
                        <path d="M13,16.6 L7.29100016,20.678 C7.11698781,20.8025408 6.88301252,20.8025408 6.70900016,20.678 L0.209000165,16.035 C0.0777079711,15.9410341 0,15.7894534 0,15.628 L0,0.857 C0.000222695472,0.669728945 0.105075204,0.498282226 0.271681665,0.412767405 C0.438288126,0.327252584 0.63871343,0.342008037 0.791000165,0.451 L7,4.886 L13.7090002,0.095 C13.8830125,-0.02954081 14.1169878,-0.02954081 14.2910002,0.095 L20.7910002,4.738 C20.9222924,4.83196587 21,4.98354658 21,5.145 L21,9.888" id="Path"></path>
                        <path d="M19.0000002,11.886 C21.2091392,11.886 23.0000002,13.676861 23.0000002,15.886 C23.0000002,17.667 20.4000002,21.126 19.3920002,22.4 C19.2971643,22.5197745 19.1527738,22.5896196 19.0000002,22.5896196 C18.8472265,22.5896196 18.7028361,22.5197745 18.6080002,22.4 C17.6000002,21.126 15.0000002,17.667 15.0000002,15.886 C15.0000002,13.676861 16.7908612,11.886 19.0000002,11.886 Z" id="Path"></path>
                        <circle id="Oval" cx="19.0000002" cy="15.886" r="1.5"></circle>
                    </g>
                </g>
            </g>
        </g>
    </g>
</svg>