<svg width="473" height="163" viewBox="0 0 473 163" fill="none" xmlns="http://www.w3.org/2000/svg">
<g opacity="0.7" filter="url(#filter0_f_2240_55426)">
<path d="M14 148.116L47.7625 142.389H182.447L151.736 148.116H14Z" fill="#666D80"/>
</g>
<path d="M25.7642 83.8851L40.1738 80.0254V119.909L25.7642 123.769V83.8851Z" fill="#B75CEE"/>
<path d="M40.1736 80.0254L77.7416 81.1833V121.067L40.1736 119.909V80.0254Z" fill="#B75CEE"/>
<path d="M40.1736 80.0254L77.7416 81.1833V121.067L40.1736 119.909V80.0254Z" fill="url(#paint0_linear_2240_55426)"/>
<path d="M63.718 85.0466L25.764 83.8887V123.772L63.718 124.93V85.0466Z" fill="url(#paint1_linear_2240_55426)"/>
<path d="M77.7417 81.1836L63.718 85.0433V124.927L77.7417 121.067V81.1836Z" fill="url(#paint2_linear_2240_55426)"/>
<path opacity="0.9" d="M25.7642 83.8851L40.1738 80.0254L77.7418 81.1833L63.7181 85.043L25.7642 83.8851Z" fill="url(#paint3_linear_2240_55426)"/>
<path d="M25.7642 56.6117L40.1738 52.752V69.4774L25.7642 73.3372V56.6117Z" fill="#B75CEE"/>
<path d="M25.764 73.3363L40.1737 69.4766L77.7417 70.6345L63.718 74.4942L25.764 73.3363Z" fill="#1710FB"/>
<path d="M40.1736 52.752L77.7416 53.9099V70.6353L40.1736 69.4774V52.752Z" fill="#B75CEE"/>
<path d="M63.718 57.7692L25.764 56.6113V73.3368L63.718 74.4947V57.7692Z" fill="url(#paint4_linear_2240_55426)"/>
<path d="M77.7417 53.9102L63.718 57.7699V74.4954L77.7417 70.6356V53.9102Z" fill="url(#paint5_linear_2240_55426)"/>
<path d="M25.7642 56.6117L40.1738 52.752L77.7418 53.9099L63.7181 57.7696L25.7642 56.6117Z" fill="url(#paint6_linear_2240_55426)"/>
<path d="M25.7642 3.85972L40.1738 0V39.8838L25.7642 43.7435V3.85972Z" fill="#B75CEE"/>
<path d="M25.7642 43.7425L40.1738 39.8828L77.7418 41.0407L63.7181 44.9005L25.7642 43.7425Z" fill="#1710FB"/>
<path d="M40.1737 0L77.7417 1.15792V41.0417L40.1737 39.8838V0Z" fill="#B75CEE"/>
<path d="M40.1737 0L77.7417 1.15792V41.0417L40.1737 39.8838V0Z" fill="url(#paint7_linear_2240_55426)"/>
<path d="M63.7181 5.01925L25.7642 3.86133V43.7451L63.7181 44.9031V5.01925Z" fill="url(#paint8_linear_2240_55426)"/>
<path d="M77.7418 1.1582L63.7181 5.01793V44.9017L77.7418 41.042V1.1582Z" fill="#B75CEE"/>
<path opacity="0.8" d="M25.7642 3.85972L40.1738 0L77.7418 1.15792L63.7181 5.01764L25.7642 3.85972Z" fill="url(#paint9_linear_2240_55426)"/>
<path d="M118.14 86.4554L132.55 82.5957V122.48L118.14 126.339V86.4554Z" fill="#B75CEE"/>
<path d="M132.549 82.5957L170.117 83.7536V123.637L132.549 122.48V82.5957Z" fill="#B75CEE"/>
<path d="M132.549 82.5957L170.117 83.7536V123.637L132.549 122.48V82.5957Z" fill="url(#paint10_linear_2240_55426)"/>
<path d="M156.094 87.613L118.14 86.4551V126.339L156.094 127.497V87.613Z" fill="url(#paint11_linear_2240_55426)"/>
<path d="M170.117 83.7539L156.094 87.6136V127.497L170.117 123.638V83.7539Z" fill="url(#paint12_linear_2240_55426)"/>
<path opacity="0.9" d="M118.14 86.4554L132.55 82.5957L170.118 83.7536L156.094 87.6133L118.14 86.4554Z" fill="url(#paint13_linear_2240_55426)"/>
<path d="M117.883 59.182L132.292 55.3223V72.0477L117.883 75.9075V59.182Z" fill="#B75CEE"/>
<path d="M117.883 75.9086L132.292 72.0488L169.86 73.2067L155.837 77.0665L117.883 75.9086Z" fill="#1710FB"/>
<path d="M132.292 55.3223L169.86 56.4802V73.2057L132.292 72.0477V55.3223Z" fill="#B75CEE"/>
<path d="M155.837 60.3435L117.883 59.1855V75.911L155.837 77.0689V60.3435Z" fill="url(#paint14_linear_2240_55426)"/>
<path d="M169.86 56.4824L155.837 60.3421V77.0676L169.86 73.2079V56.4824Z" fill="url(#paint15_linear_2240_55426)"/>
<path d="M117.883 59.182L132.292 55.3223L169.86 56.4802L155.837 60.3399L117.883 59.182Z" fill="url(#paint16_linear_2240_55426)"/>
<path d="M63.8466 44.7699L78.2562 40.9102L132.292 42.0681L118.269 45.9278L63.8466 44.7699Z" fill="#B75CEE"/>
<path d="M63.8466 4.88707L78.2562 1.02734V40.9112L63.8466 44.7709V4.88707Z" fill="#E201FF"/>
<path d="M63.8466 4.88707L78.2562 1.02734V40.9112L63.8466 44.7709V4.88707Z" fill="url(#paint17_linear_2240_55426)"/>
<path d="M132.421 42.1977V2.31392L104.111 19.9701L78.2562 1.02734V40.9112L105.339 41.5545L132.421 42.1977Z" fill="url(#paint18_linear_2240_55426)"/>
<path d="M131.907 2.31445L117.883 6.17418V46.058L131.907 42.1983V2.31445Z" fill="#B75CEE"/>
<path d="M117.883 6.17222L132.293 2.3125V42.1963L117.883 46.056V6.17222Z" fill="#B75CEE"/>
<path d="M117.883 46.055L132.293 42.1953L169.861 43.3532L155.837 47.213L117.883 46.055Z" fill="#1710FB"/>
<path d="M132.293 2.3125L169.861 3.47042V43.3542L132.293 42.1963V2.3125Z" fill="#B75CEE"/>
<path d="M132.293 2.3125L169.861 3.47042V43.3542L132.293 42.1963V2.3125Z" fill="url(#paint19_linear_2240_55426)"/>
<path d="M155.837 7.32979L117.883 6.17188V46.0557L155.837 47.2136V7.32979Z" fill="url(#paint20_linear_2240_55426)"/>
<path d="M169.861 3.4707L155.837 7.33043V47.2142L169.861 43.3545V3.4707Z" fill="url(#paint21_linear_2240_55426)"/>
<path opacity="0.8" d="M117.883 6.17222L132.293 2.3125L169.861 3.47042L155.837 7.33014L117.883 6.17222Z" fill="url(#paint22_linear_2240_55426)"/>
<path opacity="0.72" d="M63.8469 5.01768L78.2566 1.0293L100.252 17.4254L90.9253 23.8065L63.8469 5.01768Z" fill="url(#paint23_linear_2240_55426)"/>
<path d="M90.9934 57.3419L118.012 46.0592L155.841 47.1832V7.36258L117.889 6.17534L90.9291 23.8315L63.7181 5.01148L25.764 3.86523V43.7472L63.7181 44.7726L90.9934 57.3419Z" fill="url(#paint24_linear_2240_55426)"/>
<rect x="203.663" y="3.72266" width="263.321" height="45.6724" fill="#1F1B2C"/>
<path d="M219.289 11.9384H227.121L235.393 32.1203H235.745L244.017 11.9384H251.85V41.9766H245.689V22.4253H245.44L237.667 41.8299H233.472L225.698 22.352H225.449V41.9766H219.289V11.9384ZM288.633 26.9575C288.633 30.2331 288.012 33.0199 286.77 35.3177C285.538 37.6155 283.856 39.3707 281.724 40.5832C279.602 41.7859 277.217 42.3872 274.567 42.3872C271.897 42.3872 269.502 41.781 267.38 40.5685C265.258 39.356 263.581 37.6009 262.349 35.303C261.117 33.0052 260.501 30.2233 260.501 26.9575C260.501 23.6818 261.117 20.8951 262.349 18.5972C263.581 16.2994 265.258 14.5491 267.38 13.3464C269.502 12.1339 271.897 11.5277 274.567 11.5277C277.217 11.5277 279.602 12.1339 281.724 13.3464C283.856 14.5491 285.538 16.2994 286.77 18.5972C288.012 20.8951 288.633 23.6818 288.633 26.9575ZM282.194 26.9575C282.194 24.8356 281.876 23.0462 281.24 21.5893C280.615 20.1324 279.73 19.0275 278.586 18.2745C277.442 17.5216 276.102 17.1452 274.567 17.1452C273.032 17.1452 271.692 17.5216 270.548 18.2745C269.404 19.0275 268.514 20.1324 267.879 21.5893C267.253 23.0462 266.94 24.8356 266.94 26.9575C266.94 29.0793 267.253 30.8687 267.879 32.3256C268.514 33.7825 269.404 34.8875 270.548 35.6404C271.692 36.3933 273.032 36.7697 274.567 36.7697C276.102 36.7697 277.442 36.3933 278.586 35.6404C279.73 34.8875 280.615 33.7825 281.24 32.3256C281.876 30.8687 282.194 29.0793 282.194 26.9575ZM307.932 41.9766H297.284V11.9384H308.02C311.042 11.9384 313.643 12.5397 315.823 13.7424C318.004 14.9353 319.681 16.6514 320.854 18.8906C322.037 21.1297 322.629 23.8089 322.629 26.9281C322.629 30.0571 322.037 32.7461 320.854 34.995C319.681 37.244 317.994 38.9698 315.794 40.1725C313.604 41.3752 310.983 41.9766 307.932 41.9766ZM303.635 36.5351H307.668C309.546 36.5351 311.125 36.2026 312.406 35.5377C313.696 34.863 314.664 33.8217 315.31 32.4136C315.965 30.9958 316.293 29.1673 316.293 26.9281C316.293 24.7085 315.965 22.8947 315.31 21.4866C314.664 20.0786 313.701 19.0421 312.42 18.3772C311.139 17.7123 309.56 17.3799 307.683 17.3799H303.635V36.5351ZM349.834 11.9384H356.185V31.4456C356.185 33.6359 355.662 35.5524 354.616 37.1951C353.579 38.8378 352.127 40.1187 350.259 41.0379C348.392 41.9472 346.216 42.4019 343.733 42.4019C341.239 42.4019 339.059 41.9472 337.191 41.0379C335.323 40.1187 333.871 38.8378 332.835 37.1951C331.798 35.5524 331.28 33.6359 331.28 31.4456V11.9384H337.631V30.9029C337.631 32.0469 337.88 33.0639 338.379 33.9537C338.888 34.8435 339.601 35.5426 340.52 36.0511C341.44 36.5595 342.51 36.8137 343.733 36.8137C344.965 36.8137 346.035 36.5595 346.945 36.0511C347.864 35.5426 348.573 34.8435 349.071 33.9537C349.58 33.0639 349.834 32.0469 349.834 30.9029V11.9384ZM365.357 41.9766V11.9384H371.708V36.7404H384.586V41.9766H365.357ZM398.682 41.9766H391.877L402.246 11.9384H410.431L420.786 41.9766H413.98L406.456 18.8026H406.221L398.682 41.9766ZM398.257 30.1696H414.332V35.127H398.257V30.1696ZM428.348 41.9766V11.9384H440.199C442.467 11.9384 444.404 12.3442 446.007 13.1557C447.621 13.9575 448.848 15.0967 449.689 16.5732C450.539 18.0399 450.965 19.7657 450.965 21.7506C450.965 23.7454 450.534 25.4614 449.674 26.8988C448.813 28.3264 447.567 29.4215 445.934 30.1842C444.311 30.9469 442.345 31.3283 440.038 31.3283H432.103V26.2241H439.011C440.223 26.2241 441.231 26.0579 442.032 25.7254C442.834 25.393 443.431 24.8943 443.822 24.2294C444.223 23.5645 444.423 22.7382 444.423 21.7506C444.423 20.7533 444.223 19.9124 443.822 19.2279C443.431 18.5434 442.829 18.0252 442.018 17.6732C441.216 17.3114 440.204 17.1305 438.982 17.1305H434.699V41.9766H428.348ZM444.57 28.3068L452.035 41.9766H445.024L437.72 28.3068H444.57Z" fill="#F2F3F4"/>
<path d="M205.589 124.598V75.2732H218.626V83.9756H219.204C220.232 81.0855 221.945 78.8055 224.342 77.1357C226.74 75.4658 229.609 74.6309 232.949 74.6309C236.331 74.6309 239.21 75.4766 241.587 77.1678C243.963 78.8376 245.547 81.1069 246.339 83.9756H246.853C247.859 81.1497 249.679 78.8912 252.312 77.1999C254.967 75.4873 258.103 74.6309 261.721 74.6309C266.324 74.6309 270.06 76.0974 272.928 79.0303C275.818 81.9418 277.263 86.0736 277.263 91.4257V124.598H263.616V94.1231C263.616 91.3828 262.888 89.3277 261.432 87.9575C259.976 86.5874 258.157 85.9023 255.973 85.9023C253.49 85.9023 251.552 86.6944 250.161 88.2787C248.769 89.8415 248.073 91.9073 248.073 94.4763V124.598H234.811V93.8341C234.811 91.415 234.115 89.4882 232.724 88.0539C231.354 86.6195 229.545 85.9023 227.297 85.9023C225.777 85.9023 224.407 86.2877 223.186 87.0584C221.988 87.8077 221.035 88.8674 220.328 90.2375C219.622 91.5862 219.269 93.1704 219.269 94.9901V124.598H205.589ZM310.548 125.561C305.474 125.561 301.107 124.533 297.446 122.478C293.807 120.402 291.002 117.469 289.033 113.679C287.063 109.869 286.078 105.362 286.078 100.16C286.078 95.0865 287.063 90.6336 289.033 86.8015C291.002 82.9694 293.775 79.983 297.35 77.8422C300.946 75.7013 305.164 74.6309 310.002 74.6309C313.256 74.6309 316.285 75.1554 319.09 76.2044C321.916 77.232 324.378 78.7841 326.476 80.8607C328.595 82.9373 330.243 85.5491 331.421 88.6961C332.598 91.8217 333.187 95.4825 333.187 99.6785V103.436H291.537V94.958H320.31C320.31 92.9885 319.882 91.2437 319.026 89.7237C318.169 88.2037 316.981 87.0156 315.461 86.1592C313.962 85.2815 312.218 84.8426 310.227 84.8426C308.15 84.8426 306.309 85.3243 304.703 86.2877C303.119 87.2296 301.878 88.5034 300.978 90.1091C300.079 91.6933 299.619 93.4594 299.598 95.4076V103.468C299.598 105.908 300.047 108.017 300.946 109.794C301.867 111.571 303.162 112.941 304.832 113.904C306.502 114.868 308.482 115.349 310.773 115.349C312.293 115.349 313.684 115.135 314.947 114.707C316.21 114.279 317.291 113.637 318.191 112.78C319.09 111.924 319.775 110.875 320.246 109.633L332.898 110.468C332.256 113.508 330.939 116.163 328.948 118.432C326.979 120.68 324.431 122.435 321.305 123.699C318.201 124.94 314.615 125.561 310.548 125.561ZM360.29 125.4C356.543 125.4 353.15 124.437 350.11 122.51C347.092 120.562 344.694 117.704 342.917 113.936C341.162 110.147 340.284 105.502 340.284 99.9996C340.284 94.3479 341.194 89.6488 343.013 85.9023C344.833 82.1345 347.252 79.3193 350.271 77.4568C353.311 75.5729 356.64 74.6309 360.258 74.6309C363.019 74.6309 365.321 75.1019 367.162 76.0439C369.024 76.9644 370.523 78.1205 371.658 79.512C372.814 80.8821 373.691 82.2308 374.291 83.5581H374.708V58.8317H388.356V124.598H374.869V116.698H374.291C373.649 118.068 372.739 119.428 371.561 120.776C370.405 122.104 368.896 123.206 367.033 124.084C365.192 124.962 362.944 125.4 360.29 125.4ZM364.625 114.514C366.83 114.514 368.693 113.915 370.213 112.716C371.754 111.496 372.931 109.794 373.745 107.61C374.58 105.427 374.997 102.868 374.997 99.9354C374.997 97.0025 374.59 94.4549 373.777 92.2927C372.963 90.1305 371.786 88.4606 370.245 87.2832C368.703 86.1057 366.83 85.517 364.625 85.517C362.377 85.517 360.482 86.1271 358.941 87.3474C357.4 88.5677 356.233 90.2589 355.441 92.4211C354.649 94.5834 354.253 97.0881 354.253 99.9354C354.253 102.804 354.649 105.341 355.441 107.546C356.254 109.73 357.421 111.442 358.941 112.684C360.482 113.904 362.377 114.514 364.625 114.514ZM399.603 124.598V75.2732H413.283V124.598H399.603ZM406.475 68.9149C404.442 68.9149 402.697 68.2406 401.241 66.8919C399.807 65.5217 399.089 63.884 399.089 61.9787C399.089 60.0948 399.807 58.4784 401.241 57.1297C402.697 55.7596 404.442 55.0745 406.475 55.0745C408.509 55.0745 410.243 55.7596 411.678 57.1297C413.133 58.4784 413.861 60.0948 413.861 61.9787C413.861 63.884 413.133 65.5217 411.678 66.8919C410.243 68.2406 408.509 68.9149 406.475 68.9149ZM438.307 125.529C435.16 125.529 432.355 124.983 429.893 123.891C427.431 122.778 425.483 121.14 424.049 118.978C422.636 116.794 421.929 114.076 421.929 110.821C421.929 108.081 422.432 105.78 423.439 103.917C424.445 102.055 425.815 100.556 427.549 99.4216C429.283 98.287 431.253 97.4307 433.458 96.8526C435.684 96.2746 438.018 95.8679 440.458 95.6324C443.327 95.3327 445.639 95.0543 447.394 94.7974C449.15 94.5191 450.424 94.1124 451.216 93.5772C452.008 93.042 452.404 92.2499 452.404 91.2009V91.0082C452.404 88.9744 451.762 87.4009 450.477 86.2877C449.214 85.1745 447.416 84.6179 445.082 84.6179C442.62 84.6179 440.662 85.1638 439.206 86.2556C437.75 87.326 436.787 88.6747 436.316 90.3017L423.663 89.2741C424.306 86.277 425.569 83.6866 427.453 81.503C429.337 79.2979 431.766 77.6067 434.742 76.4292C437.739 75.2304 441.207 74.6309 445.147 74.6309C447.887 74.6309 450.509 74.9521 453.014 75.5943C455.54 76.2365 457.777 77.232 459.726 78.5807C461.695 79.9295 463.247 81.6635 464.382 83.7829C465.516 85.8809 466.084 88.3964 466.084 91.3293V124.598H453.11V117.758H452.725C451.933 119.299 450.873 120.659 449.546 121.836C448.219 122.992 446.624 123.902 444.761 124.566C442.899 125.208 440.747 125.529 438.307 125.529ZM442.224 116.088C444.237 116.088 446.014 115.692 447.555 114.9C449.096 114.086 450.306 112.994 451.184 111.624C452.061 110.254 452.5 108.702 452.5 106.968V101.734C452.072 102.012 451.483 102.269 450.734 102.504C450.006 102.718 449.182 102.922 448.261 103.115C447.341 103.286 446.42 103.446 445.5 103.596C444.579 103.725 443.744 103.842 442.995 103.949C441.389 104.185 439.987 104.56 438.788 105.073C437.589 105.587 436.658 106.283 435.995 107.161C435.331 108.017 434.999 109.087 434.999 110.372C434.999 112.234 435.673 113.658 437.022 114.643C438.392 115.606 440.126 116.088 442.224 116.088Z" fill="#1F1B2C"/>
<defs>
<filter id="filter0_f_2240_55426" x="0.0402689" y="128.429" width="196.367" height="33.648" filterUnits="userSpaceOnUse" color-interpolation-filters="sRGB">
<feFlood flood-opacity="0" result="BackgroundImageFix"/>
<feBlend mode="normal" in="SourceGraphic" in2="BackgroundImageFix" result="shape"/>
<feGaussianBlur stdDeviation="6.97987" result="effect1_foregroundBlur_2240_55426"/>
</filter>
<linearGradient id="paint0_linear_2240_55426" x1="40.1736" y1="78.4815" x2="83.7885" y2="118.88" gradientUnits="userSpaceOnUse">
<stop stop-color="#6C39F6" stop-opacity="0.71"/>
<stop offset="1" stop-color="#0000F5"/>
</linearGradient>
<linearGradient id="paint1_linear_2240_55426" x1="63.7316" y1="124.948" x2="34.5875" y2="102.444" gradientUnits="userSpaceOnUse">
<stop stop-color="#BC01FF"/>
<stop offset="1" stop-color="#E100FF" stop-opacity="0.95"/>
</linearGradient>
<linearGradient id="paint2_linear_2240_55426" x1="76.3339" y1="105.418" x2="56.9936" y2="106.933" gradientUnits="userSpaceOnUse">
<stop stop-color="#7901FA"/>
<stop offset="1" stop-color="#A901FF"/>
</linearGradient>
<linearGradient id="paint3_linear_2240_55426" x1="74.195" y1="82.5119" x2="29.4984" y2="85.0075" gradientUnits="userSpaceOnUse">
<stop stop-color="#6403D9"/>
<stop offset="0.928707" stop-color="#8D01FF"/>
</linearGradient>
<linearGradient id="paint4_linear_2240_55426" x1="63.7316" y1="74.5026" x2="52.4956" y2="54.5911" gradientUnits="userSpaceOnUse">
<stop stop-color="#BC01FF"/>
<stop offset="1" stop-color="#E100FF" stop-opacity="0.9"/>
</linearGradient>
<linearGradient id="paint5_linear_2240_55426" x1="76.3339" y1="65.3144" x2="57.3997" y2="68.4664" gradientUnits="userSpaceOnUse">
<stop stop-color="#7901FA"/>
<stop offset="1" stop-color="#A901FF"/>
</linearGradient>
<linearGradient id="paint6_linear_2240_55426" x1="74.195" y1="55.2385" x2="29.4984" y2="57.734" gradientUnits="userSpaceOnUse">
<stop stop-color="#6403D9"/>
<stop offset="0.928707" stop-color="#8D01FF"/>
</linearGradient>
<linearGradient id="paint7_linear_2240_55426" x1="40.1737" y1="-1.54389" x2="83.7886" y2="38.8546" gradientUnits="userSpaceOnUse">
<stop stop-color="#6C39F6" stop-opacity="0.71"/>
<stop offset="1" stop-color="#0000F5"/>
</linearGradient>
<linearGradient id="paint8_linear_2240_55426" x1="63.7317" y1="44.9211" x2="34.5876" y2="22.4168" gradientUnits="userSpaceOnUse">
<stop stop-color="#BC01FF"/>
<stop offset="1" stop-color="#E100FF"/>
</linearGradient>
<linearGradient id="paint9_linear_2240_55426" x1="74.195" y1="2.48654" x2="29.4984" y2="4.98208" gradientUnits="userSpaceOnUse">
<stop stop-color="#6403D9"/>
<stop offset="0.928707" stop-color="#8D01FF"/>
</linearGradient>
<linearGradient id="paint10_linear_2240_55426" x1="132.549" y1="81.0518" x2="176.164" y2="121.45" gradientUnits="userSpaceOnUse">
<stop stop-color="#6C39F6" stop-opacity="0.71"/>
<stop offset="1" stop-color="#0000F5"/>
</linearGradient>
<linearGradient id="paint11_linear_2240_55426" x1="156.107" y1="127.515" x2="126.963" y2="105.011" gradientUnits="userSpaceOnUse">
<stop stop-color="#BC01FF"/>
<stop offset="1" stop-color="#E100FF" stop-opacity="0.95"/>
</linearGradient>
<linearGradient id="paint12_linear_2240_55426" x1="168.71" y1="107.988" x2="149.369" y2="109.503" gradientUnits="userSpaceOnUse">
<stop stop-color="#7901FA"/>
<stop offset="1" stop-color="#A901FF"/>
</linearGradient>
<linearGradient id="paint13_linear_2240_55426" x1="166.571" y1="85.0822" x2="121.874" y2="87.5778" gradientUnits="userSpaceOnUse">
<stop stop-color="#6403D9"/>
<stop offset="0.928707" stop-color="#8D01FF"/>
</linearGradient>
<linearGradient id="paint14_linear_2240_55426" x1="155.85" y1="77.0768" x2="144.614" y2="57.1653" gradientUnits="userSpaceOnUse">
<stop stop-color="#BC01FF"/>
<stop offset="1" stop-color="#E100FF" stop-opacity="0.9"/>
</linearGradient>
<linearGradient id="paint15_linear_2240_55426" x1="168.453" y1="67.8866" x2="149.518" y2="71.0387" gradientUnits="userSpaceOnUse">
<stop stop-color="#7901FA"/>
<stop offset="1" stop-color="#A901FF"/>
</linearGradient>
<linearGradient id="paint16_linear_2240_55426" x1="166.313" y1="57.8088" x2="121.617" y2="60.3043" gradientUnits="userSpaceOnUse">
<stop stop-color="#6403D9"/>
<stop offset="0.928707" stop-color="#8D01FF"/>
</linearGradient>
<linearGradient id="paint17_linear_2240_55426" x1="78.2562" y1="27.6594" x2="67.1917" y2="-1.67446" gradientUnits="userSpaceOnUse">
<stop stop-color="#6C39F6"/>
<stop offset="1" stop-color="#6C39F6" stop-opacity="0"/>
</linearGradient>
<linearGradient id="paint18_linear_2240_55426" x1="93.5019" y1="52.2128" x2="76.7068" y2="-3.66668" gradientUnits="userSpaceOnUse">
<stop stop-color="#7303E7"/>
<stop offset="1" stop-color="#D601FF"/>
</linearGradient>
<linearGradient id="paint19_linear_2240_55426" x1="132.293" y1="0.768611" x2="175.908" y2="41.1671" gradientUnits="userSpaceOnUse">
<stop stop-color="#6C39F6" stop-opacity="0.71"/>
<stop offset="1" stop-color="#0000F5"/>
</linearGradient>
<linearGradient id="paint20_linear_2240_55426" x1="155.851" y1="47.2316" x2="126.707" y2="24.7274" gradientUnits="userSpaceOnUse">
<stop stop-color="#BC01FF"/>
<stop offset="1" stop-color="#E100FF"/>
</linearGradient>
<linearGradient id="paint21_linear_2240_55426" x1="168.453" y1="27.7047" x2="149.113" y2="29.2198" gradientUnits="userSpaceOnUse">
<stop stop-color="#7901FA"/>
<stop offset="1" stop-color="#A901FF"/>
</linearGradient>
<linearGradient id="paint22_linear_2240_55426" x1="166.314" y1="4.79904" x2="121.617" y2="7.29458" gradientUnits="userSpaceOnUse">
<stop stop-color="#6403D9"/>
<stop offset="0.928707" stop-color="#8D01FF"/>
</linearGradient>
<linearGradient id="paint23_linear_2240_55426" x1="97.7674" y1="12.3168" x2="66.3671" y2="12.5873" gradientUnits="userSpaceOnUse">
<stop stop-color="#6403D9"/>
<stop offset="0.928707" stop-color="#8D01FF"/>
</linearGradient>
<linearGradient id="paint24_linear_2240_55426" x1="94.361" y1="57.3071" x2="87.9185" y2="14.7254" gradientUnits="userSpaceOnUse">
<stop stop-color="#BC01FF"/>
<stop offset="1" stop-color="#E100FF" stop-opacity="0.9"/>
</linearGradient>
</defs>
</svg>
