<?xml version="1.0" encoding="UTF-8"?>
<svg width="87px" height="57px" viewBox="0 0 87 57" version="1.1" xmlns="http://www.w3.org/2000/svg" xmlns:xlink="http://www.w3.org/1999/xlink">
    <title>nfx-logo-freelogovectors.net_</title>
    <g id="CELESTIA" stroke="none" stroke-width="1" fill="none" fill-rule="evenodd">
        <g id="EVENT" transform="translate(-856.000000, -1038.000000)">
            <g id="Group-17" transform="translate(224.000000, 868.000000)">
                <g id="Group-5" transform="translate(0.000000, 22.000000)">
                    <g id="nfx-logo-freelogovectors.net_" transform="translate(632.666667, 148.000000)">
                        <g id="grids-GUI" transform="translate(4.275000, 3.313125)" fill="#111327" fill-rule="nonzero">
                            <g id="logo">
                                <polygon id="Fill-1" points="21.558375 9.3195 21.558375 13.25025 25.367625 13.25025 25.367625 32.6205 8.307 9.3195 0 9.3195 0 13.25025 3.76875 13.25025 3.76875 36.59175 0 36.59175 0 40.5225 12.39975 40.5225 12.39975 36.59175 8.5905 36.59175 8.5905 17.505 25.570125 40.5225 30.189375 40.5225 30.189375 13.25025 34.039125 13.25025 34.039125 9.3195"></polygon>
                                <polygon id="Fill-2" points="68.48325 9.3195 68.48325 13.00725 71.886375 13.00725 65.7675 21.27375 59.567625 13.00725 62.931375 13.00725 62.931375 9.3195 50.531625 9.3195 50.531625 13.25025 54.05625 13.25025 62.890875 24.597 53.48925 36.59175 49.843125 36.59175 49.843125 40.5225 62.404875 40.5225 62.404875 36.79425 59.000625 36.79425 65.7675 27.838125 72.6165 36.79425 68.92875 36.79425 68.92875 40.5225 81.45 40.5225 81.45 36.59175 77.92425 36.59175 68.60475 24.597 77.51925 13.25025 80.964 13.25025 80.964 9.3195"></polygon>
                                <g id="Group-5" transform="translate(27.965250, 0.000000)">
                                    <path d="M21.47175,3.484125 C22.2410242,3.48422782 23.0012115,3.65038689 23.700375,3.97125 C24.1875,2.917125 24.6735,1.783125 25.119,0.729 C24.4305,0.3645 22.809375,0 21.26925,0 C16.326,0 13.20525,3.079125 12.51675,8.226 L10.571625,22.899375 L7.005375,22.899375 L5.749875,26.911125 L10.045125,26.911125 L8.0595,41.94 C7.69725,44.81775 6.154875,46.357875 3.64725,46.357875 C2.85483778,46.3619765 2.06946565,46.2090316 1.3365,45.907875 C0.8865,46.962 0.486,48.096 -6.39488462e-15,49.190625 C0.7695,49.555125 2.512125,49.798125 3.72825,49.798125 C8.5095,49.798125 11.82825,46.9215 12.52125,41.572125 L14.466375,26.90325 L18.073125,26.90325 L19.324125,22.899375 L15.069375,22.899375 L17.055,7.866 C17.4195,5.06925 18.919125,3.488625 21.47175,3.488625" id="Fill-3"></path>
                                </g>
                            </g>
                        </g>
                        <rect id="Rectangle" x="0" y="0" width="80" height="56.475"></rect>
                    </g>
                </g>
            </g>
        </g>
    </g>
</svg>