<?xml version="1.0" encoding="UTF-8"?>
<svg width="166px" height="33px" viewBox="0 0 166 33" version="1.1" xmlns="http://www.w3.org/2000/svg" xmlns:xlink="http://www.w3.org/1999/xlink">
    <title>LogotypeLight</title>
    <g id="CELESTIA" stroke="none" stroke-width="1" fill="none" fill-rule="evenodd">
        <g id="EVENT" transform="translate(-1024.000000, -1168.000000)">
            <g id="Group-17" transform="translate(224.000000, 868.000000)">
                <g id="Group-5" transform="translate(0.000000, 22.000000)">
                    <g id="LogotypeLight" transform="translate(800.666667, 278.000000)">
                        <polygon id="Path" fill="#000000" points="56.8104683 16.1045662 40.6947689 0.00582994455 40.6947689 11.7959094 24.6934442 23.6002594 40.6947689 23.6113808 40.6947689 32.2032908"></polygon>
                        <polygon id="Path" fill="#A1A1A1" points="0 16.0987129 16.1156993 32.1974375 16.1156993 20.5321633 31.9998398 8.71996981 16.1156993 8.70908256 16.1156993 0"></polygon>
                        <polygon id="Path" fill-opacity="0.9" fill="#000000" fill-rule="nonzero" points="81.6186383 25.5846648 69.2537708 25.5846648 69.2537708 22.0339008 76.3323537 14.143223 69.4360444 14.143223 69.4360444 10.6532169 81.4971226 10.6532169 81.4971226 14.0219415 74.2057116 22.0642212 81.6186383 22.0642212"></polygon>
                        <polygon id="Path" fill-opacity="0.9" fill="#000000" fill-rule="nonzero" points="98.493284 10.6532169 92.5083426 16.9353919 98.6147998 25.5846648 93.6628589 25.5846648 89.7133641 19.8791627 88.0424646 21.6393845 88.0424646 25.5846648 84.0017745 25.5846648 84.0017745 3.61232964 88.0424646 3.61232964 88.0424646 16.207 93.2071165 10.6532169"></polygon>
                        <path d="M116.067406,9.19643315 L112.300185,10.3497788 C112.158534,9.5808817 111.773383,8.8829273 111.145903,8.25568145 C110.518423,7.62843561 109.595933,7.31492976 108.380776,7.31492976 C107.389217,7.31492976 106.579113,7.58804744 105.950462,8.13428281 C105.322982,8.66038262 105.009242,9.29769624 105.009242,10.0462237 C105.009242,11.3613561 105.788909,12.1706414 107.348244,12.4740795 L110.355699,13.0507523 C112.259211,13.4149482 113.73777,14.1736605 114.791374,15.3268891 C115.844978,16.4801177 116.371781,17.8356383 116.371781,19.3935681 C116.371781,21.1740425 115.662354,22.7318552 114.24467,24.0672403 C112.846888,25.3823728 110.963278,26.0398219 108.593839,26.0398219 C107.23703,26.0398219 106.011337,25.8375299 104.91793,25.4329458 C103.824054,25.0282446 102.943007,24.492077 102.27467,23.824443 C101.606334,23.1365564 101.079649,22.4182323 100.694849,21.6697049 C100.330302,20.9008078 100.107523,20.1117751 100.026513,19.3024898 L103.91525,18.2706599 C104.016513,19.4238885 104.462539,20.3848928 105.251571,21.1537899 C106.061676,21.9225699 107.186691,22.3070185 108.624276,22.3070185 C109.717683,22.3070185 110.568762,22.0642212 111.17634,21.5786266 C111.80382,21.093032 112.11756,20.4557184 112.11756,19.6666858 C112.11756,19.0394399 111.884596,18.5033894 111.418669,18.058183 C110.973814,17.592841 110.335798,17.2793352 109.505792,17.1174313 L106.497166,16.5104381 C104.755206,16.1462421 103.378497,15.4280351 102.365749,14.3556999 C101.353118,13.2833648 100.846802,11.9480967 100.846802,10.3497788 C100.846802,8.44790573 101.575896,6.8495878 103.034202,5.55470795 C104.512877,4.2598281 106.285274,3.61232964 108.350339,3.61232964 C109.586568,3.61232964 110.690511,3.78430129 111.662169,4.12824461 C112.633826,4.47218792 113.414664,4.93752988 114.001171,5.52427049 C114.588848,6.09087554 115.044239,6.67761614 115.368515,7.2844923 C115.692791,7.89148552 115.925755,8.52879914 116.067406,9.19643315 Z" id="Path" fill-opacity="0.9" fill="#000000" fill-rule="nonzero"></path>
                        <polygon id="Path" fill-opacity="0.9" fill="#000000" fill-rule="nonzero" points="123.178065 31.4722064 118.894578 31.4722064 122.418299 23.7030444 116.068577 10.6532169 120.595564 10.6532169 124.575847 19.3935681 128.251756 10.6532169 132.565681 10.6532169"></polygon>
                        <path d="M138.14276,16.9960327 L138.14276,25.5846648 L134.101602,25.5846648 L134.101602,10.6532169 L138.02101,10.6532169 L138.02101,12.5045169 C138.445964,11.7761251 139.053543,11.2197049 139.843746,10.8352563 C140.633949,10.4509248 141.463956,10.2587006 142.334935,10.2587006 C144.096796,10.2587006 145.433703,10.8151208 146.345656,11.9278441 C147.277511,13.0204319 147.743438,14.4365933 147.743438,16.1766796 L147.743438,25.5846648 L143.70228,25.5846648 L143.70228,16.874634 C143.70228,15.9844553 143.469316,15.2661312 143.003389,14.7198959 C142.557363,14.1736605 141.869008,13.9005428 140.937153,13.9005428 C140.087246,13.9005428 139.408256,14.1939131 138.902526,14.7806537 C138.395625,15.3672773 138.14276,16.105854 138.14276,16.9960327 Z" id="Path" fill-opacity="0.9" fill="#000000" fill-rule="nonzero"></path>
                        <path d="M157.646149,13.9308632 C156.572643,13.9308632 155.671226,14.3051269 154.943068,15.0537714 C154.21374,15.8022988 153.84849,16.824061 153.84849,18.1189409 C153.84849,19.4138207 154.21374,20.4456506 154.943068,21.2144307 C155.692298,21.9630752 156.603081,22.3373389 157.676587,22.3373389 C158.628343,22.3373389 159.388108,22.0945416 159.955884,21.608947 C160.522489,21.1032169 160.90764,20.5062914 161.110166,19.8184048 L164.664325,21.0020709 C164.300246,22.3778441 163.510043,23.5613931 162.294886,24.5528349 C161.079729,25.5441596 159.540296,26.0398219 157.676587,26.0398219 C155.448799,26.0398219 153.575724,25.2912945 152.056192,23.7941226 C150.557733,22.2766981 149.808503,20.3848928 149.808503,18.1189409 C149.808503,15.8326192 150.547197,13.940931 152.025755,12.4437591 C153.525385,10.9465872 155.368022,10.1979427 157.554837,10.1979427 C159.459519,10.1979427 161.018854,10.6937221 162.234011,11.6850468 C163.449168,12.656236 164.228835,13.839785 164.573013,15.2358108 L160.957979,16.4497973 C160.47215,14.7704689 159.368207,13.9308632 157.646149,13.9308632 Z" id="Path" fill-opacity="0.9" fill="#000000" fill-rule="nonzero"></path>
                    </g>
                </g>
            </g>
        </g>
    </g>
</svg>