<svg width="72" height="21" viewBox="0 0 72 21" fill="none" xmlns="http://www.w3.org/2000/svg">
<path d="M40.3923 19.1923C40.0675 19.5348 39.6742 19.7104 39.204 19.7192H35.8955C35.6219 19.7192 35.4082 19.4909 35.4082 19.2186V14.1862C35.4082 13.9051 35.6305 13.6855 35.8955 13.6855H39.204C39.6657 13.6943 40.0589 13.8788 40.3923 14.2213C40.7172 14.5638 40.8796 14.9678 40.8796 15.4421C40.8796 15.9339 40.7087 16.3555 40.3667 16.698C40.7087 17.0405 40.8796 17.4621 40.8796 17.9539C40.8796 18.4369 40.7172 18.8497 40.3923 19.1923ZM36.3914 15.0381V15.8461C36.3914 16.0393 36.5452 16.1974 36.7333 16.1974H39.1955C39.5973 16.171 39.9307 15.8285 39.905 15.3982C39.8879 14.9942 39.546 14.6868 39.1442 14.6868H36.7333C36.5452 14.6868 36.3914 14.8449 36.3914 15.0381ZM36.3914 17.5587V18.3667C36.3914 18.5599 36.5452 18.718 36.7333 18.718H39.1356C39.5032 18.718 39.8281 18.4545 39.8879 18.0856C39.9649 17.6289 39.6229 17.2337 39.1869 17.2074H36.7248C36.5452 17.2074 36.3914 17.3655 36.3914 17.5587Z" fill="black"/>
<path d="M45.1797 18.718C46.1885 18.718 46.6929 18.4633 46.6929 17.9627C46.6929 17.4621 46.1885 17.2074 45.1797 17.2074C44.4188 17.2074 43.8118 17.0581 43.3673 16.7595C42.9142 16.4696 42.6919 16.0217 42.6919 15.4421C42.6919 14.8975 42.9227 14.4584 43.3758 14.151C43.8375 13.8436 44.4359 13.6768 45.1797 13.6768C45.8893 13.6768 46.5219 13.7997 47.0861 14.0544C47.3597 14.1774 47.4879 14.4321 47.3854 14.6955C47.2742 14.9854 47.069 15.0995 46.7698 15.0029C46.2654 14.7922 45.7354 14.6868 45.1797 14.6868C44.1709 14.6868 43.6665 14.9415 43.6665 15.4421C43.6665 15.9427 44.1709 16.1974 45.1797 16.1974C45.9406 16.1974 46.5475 16.3467 46.9921 16.6453C47.4452 16.9351 47.6675 17.383 47.6675 17.9627C47.6675 18.5072 47.4367 18.9463 46.975 19.2537C46.5134 19.5611 45.9235 19.728 45.1797 19.728H44.9318C44.2222 19.728 43.5896 19.605 43.0253 19.3591C42.7688 19.2625 42.6235 18.9639 42.7261 18.7004C42.8287 18.4194 43.0937 18.3052 43.3502 18.4018C43.8973 18.6126 44.4274 18.718 44.9318 18.718H45.1797Z" fill="black"/>
<path d="M71.2288 10.963L68.3905 5.91299C68.2452 5.67586 67.946 5.59682 67.7066 5.73734C67.6382 5.78125 67.5784 5.84273 67.5356 5.91299L64.6973 10.963C64.6631 11.0245 64.646 11.0947 64.646 11.165C64.6289 11.446 64.8341 11.692 65.1077 11.7095H65.1162C65.3128 11.7095 65.4582 11.6129 65.5779 11.4021L66.0139 10.6205C66.0737 10.5151 66.1763 10.4536 66.296 10.4536H69.6045C69.7156 10.4536 69.8268 10.5151 69.8866 10.6205L70.3226 11.4021C70.4338 11.6041 70.5791 11.7095 70.7586 11.7095C71.0322 11.7183 71.263 11.4987 71.2716 11.2177C71.2716 11.2089 71.2716 11.2089 71.2716 11.2001C71.2887 11.1211 71.263 11.042 71.2288 10.963ZM68.9719 9.41726C68.9377 9.43482 68.8949 9.44361 68.8607 9.44361H67.0654C66.9457 9.44361 66.8431 9.33822 66.8431 9.21526C66.8431 9.18013 66.8517 9.13621 66.8688 9.10108L67.775 7.51143C67.8348 7.40604 67.9716 7.37091 68.0742 7.43239C68.1084 7.44995 68.1341 7.4763 68.1512 7.51143L69.0574 9.10987C69.1172 9.21526 69.083 9.35578 68.9719 9.41726Z" fill="black"/>
<path d="M42.692 6.67699H45.9749C46.2485 6.67699 46.4622 6.44865 46.4622 6.1676C46.4622 6.15004 46.4622 6.13247 46.4622 6.10612C46.428 5.85143 46.2143 5.66699 45.9663 5.66699H41.897C41.6234 5.66699 41.4097 5.89534 41.4097 6.1676V11.2C41.4097 11.4811 41.6319 11.7007 41.897 11.7007H45.9749C46.2485 11.7007 46.4622 11.4723 46.4622 11.1913C46.4622 11.1737 46.4622 11.1561 46.4622 11.1298C46.428 10.8751 46.2143 10.6907 45.9663 10.6907H42.7006C42.5211 10.6907 42.3843 10.5413 42.3843 10.3657V9.52257C42.3843 9.33813 42.5296 9.19761 42.7006 9.19761H45.1627C45.4363 9.19761 45.65 8.96926 45.65 8.68822C45.65 8.67065 45.65 8.65309 45.65 8.62674C45.6158 8.37204 45.4021 8.18761 45.1542 8.18761H42.7091C42.5296 8.18761 42.3928 8.0383 42.3928 7.86265V7.00195C42.3757 6.8263 42.5125 6.67699 42.692 6.67699Z" fill="black"/>
<path d="M52.7113 8.6268C52.2582 8.32819 51.6598 8.17889 50.8989 8.17889C49.8901 8.17889 49.3857 7.92419 49.3857 7.42358C49.3857 6.92297 49.8901 6.66828 50.8989 6.66828C51.446 6.66828 51.9932 6.77367 52.4976 6.98445C52.7968 7.07228 52.9934 6.96689 53.1131 6.67706C53.2157 6.41358 53.0789 6.16767 52.8139 6.03593C52.2155 5.77245 51.5657 5.64949 50.9074 5.65828C50.1637 5.65828 49.5652 5.81636 49.1036 6.13254C48.6676 6.4048 48.4111 6.89663 48.4196 7.42358C48.4196 8.00324 48.6505 8.45115 49.095 8.74098C49.5396 9.0308 50.1466 9.18889 50.9074 9.18889C51.9162 9.18889 52.4206 9.44359 52.4206 9.9442C52.4206 10.4448 51.9162 10.6995 50.9074 10.6995H50.6595C50.1124 10.6907 49.5823 10.5853 49.0779 10.3833C48.83 10.2867 48.5564 10.4185 48.4624 10.6732C48.4624 10.6819 48.4624 10.6819 48.4538 10.6907C48.3598 10.9542 48.4966 11.2528 48.7531 11.3494C49.36 11.6041 50.0012 11.7271 50.6595 11.7183H50.9074C51.6512 11.7183 52.2496 11.5602 52.7028 11.244C53.1473 10.9718 53.4123 10.4799 53.3952 9.95298C53.3952 9.37333 53.1644 8.92541 52.7113 8.6268Z" fill="black"/>
<path d="M62.5259 5.66699C62.2523 5.66699 62.0386 5.89534 62.0386 6.1676V11.2088C62.0471 11.4899 62.2779 11.7007 62.5515 11.6919C62.808 11.6831 63.0132 11.4723 63.0217 11.2088V6.1676C63.0132 5.89534 62.7994 5.66699 62.5259 5.66699Z" fill="black"/>
<path d="M59.9355 5.66699H55.0454C54.7718 5.66699 54.5581 5.89534 54.5581 6.1676C54.5581 6.18517 54.5581 6.21152 54.5581 6.22908C54.5923 6.48378 54.806 6.66821 55.054 6.66821H56.6868C56.8664 6.66821 57.0032 6.81752 57.0032 6.99317V11.2C57.0032 11.4811 57.2254 11.7007 57.499 11.7007C57.5161 11.7007 57.5332 11.7007 57.5588 11.7007C57.8068 11.6655 57.9863 11.446 57.9863 11.1825V7.00195C57.9863 6.81752 58.1316 6.67699 58.3026 6.67699H59.9441C60.2176 6.67699 60.4399 6.44865 60.4313 6.1676C60.4313 6.15004 60.4313 6.13247 60.4313 6.10612C60.3972 5.85143 60.1834 5.66699 59.9355 5.66699Z" fill="black"/>
<path d="M39.2977 10.7083H36.0319C35.8524 10.7083 35.7156 10.559 35.707 10.3833V6.18524C35.707 5.93055 35.5275 5.71098 35.2796 5.67585C35.006 5.64072 34.7666 5.84272 34.7324 6.11498C34.7324 6.13255 34.7324 6.15011 34.7324 6.17646V11.2177C34.7324 11.4987 34.9547 11.7183 35.2197 11.7183H39.3062C39.5798 11.7183 39.7935 11.4899 39.7935 11.2177C39.7935 11.2001 39.7935 11.1738 39.7935 11.1562C39.7679 10.8927 39.5541 10.6995 39.2977 10.7083Z" fill="black"/>
<path d="M23.3197 6.67702C23.8412 6.66824 24.3455 6.8878 24.6961 7.27424C24.8927 7.46745 25.209 7.46745 25.3971 7.25667C25.4826 7.16006 25.5339 7.03711 25.5339 6.91415C25.5253 6.75606 25.4569 6.60676 25.3287 6.51015C24.1489 5.36841 22.2938 5.4211 21.1824 6.63311C20.071 7.84511 20.1223 9.75094 21.3021 10.8927C22.4562 12.0169 24.2686 11.9905 25.3971 10.8312C25.5852 10.6292 25.5681 10.3042 25.3714 10.1198C25.1834 9.94416 24.8927 9.94416 24.7046 10.1198C24.3456 10.5062 23.8412 10.717 23.3282 10.7082C22.251 10.717 21.3705 9.8212 21.3705 8.71459C21.3705 8.70581 21.3705 8.70581 21.3705 8.69702C21.3619 8.16128 21.5671 7.65189 21.9432 7.28302C22.2938 6.8878 22.7982 6.66824 23.3197 6.67702Z" fill="black"/>
<path d="M28.9621 6.67699H32.2364C32.5099 6.67699 32.7322 6.44865 32.7237 6.1676C32.7237 6.15004 32.7237 6.13247 32.7237 6.10612C32.6895 5.85143 32.4758 5.66699 32.2278 5.66699H28.1499C27.8763 5.66699 27.6626 5.89534 27.6626 6.1676V11.2C27.6626 11.4811 27.8849 11.7007 28.1499 11.7007H32.2364C32.5099 11.7007 32.7237 11.4723 32.7237 11.1913C32.7237 11.1737 32.7237 11.1561 32.7237 11.1298C32.6895 10.8751 32.4758 10.6907 32.2278 10.6907H28.9621C28.7825 10.6907 28.6457 10.5413 28.6457 10.3657V9.52257C28.6457 9.33813 28.7911 9.19761 28.9621 9.19761H31.4242C31.6978 9.19761 31.9115 8.96926 31.9115 8.68822C31.9115 8.67065 31.9115 8.65309 31.9115 8.62674C31.8773 8.37204 31.6636 8.18761 31.4157 8.18761H28.9621C28.7825 8.18761 28.6457 8.0383 28.6457 7.86265V7.01073C28.6457 6.8263 28.7825 6.67699 28.9621 6.67699C28.9535 6.67699 28.9535 6.67699 28.9621 6.67699Z" fill="black"/>
<path d="M6.91376 9.14495C7.75157 9.14495 8.42696 8.44234 8.42696 7.59043C8.42696 6.72973 7.74303 6.0359 6.91376 6.0359C6.07595 6.0359 5.40057 6.73851 5.40057 7.59043C5.40057 8.45112 6.07595 9.14495 6.91376 9.14495ZM6.91376 6.91416C7.28137 6.91416 7.57204 7.22155 7.57204 7.59043C7.57204 7.9593 7.27282 8.26669 6.91376 8.26669C6.5547 8.26669 6.25548 7.9593 6.25548 7.59043C6.25548 7.22155 6.54615 6.91416 6.91376 6.91416ZM14.1976 7.14251C13.052 5.76364 11.4961 4.81512 9.78627 4.43746V2.28572C10.0855 2.10128 10.2736 1.85537 10.2736 1.53041C10.2736 0.74876 9.14508 0.388672 8.10209 0.388672C7.0591 0.388672 5.93061 0.74876 5.93061 1.53041C5.93061 1.85537 6.11869 2.10128 6.41791 2.28572V4.43746C4.70809 4.81512 3.15215 5.76364 2.00657 7.14251C0.895182 8.47747 0.228351 10.1374 0.100114 11.8763C0.0744671 11.9642 0.065918 12.0608 0.065918 12.1574C0.065918 12.2189 0.0744671 12.2803 0.0830162 12.3418C0.0830162 12.3945 0.0830162 12.4384 0.0830162 12.4911C0.0830162 17.0317 3.68219 20.7292 8.10209 20.7292C12.522 20.7292 16.1212 17.0317 16.1212 12.4911C16.1212 10.5326 15.4372 8.63556 14.1976 7.14251ZM14.2404 10.0671C14.3002 9.85634 14.3429 9.64556 14.3857 9.45234C14.4113 9.32938 14.5652 9.31182 14.6165 9.42599C14.7875 9.80365 14.9243 10.2076 15.0354 10.6116C15.0611 10.717 14.9585 10.8049 14.8644 10.761C14.7277 10.6995 14.5738 10.6292 14.4199 10.5765C14.266 10.515 14.172 10.3482 14.2233 10.1813C14.2233 10.1374 14.2318 10.1023 14.2404 10.0671ZM13.7787 11.446C13.8129 11.3582 13.9069 11.3143 13.9924 11.3406C14.9927 11.6919 15.2321 12.0344 15.2321 12.1486C15.2321 12.2891 14.8901 12.7458 13.3256 13.1674C13.1803 13.2025 13.0606 13.0532 13.129 12.9215C13.3854 12.4209 13.5992 11.929 13.7787 11.446ZM13.394 7.57286C13.6334 7.73095 13.7873 8.41599 13.4111 9.83878C13.394 9.89147 13.3769 9.95295 13.3683 10.0056C13.3341 10.1286 13.2059 10.2076 13.0862 10.1813C12.3681 10.0144 11.5474 9.89147 10.6754 9.80365C10.4702 9.78608 10.3762 9.53139 10.5215 9.38208C10.8207 9.06591 11.1114 8.77608 11.402 8.52138C12.257 7.77486 12.8468 7.52016 13.1803 7.52016C13.2658 7.52016 13.3427 7.53773 13.394 7.57286ZM2.64775 7.71338C3.74204 6.39599 5.25523 5.51773 6.90521 5.23668C7.11039 5.20155 7.26428 5.01712 7.26428 4.80633V2.59311C7.50365 2.63702 7.75158 2.66337 7.9995 2.67215C8.15338 2.67215 8.28162 2.5492 8.28162 2.38233V2.08372C8.28162 1.92563 8.15338 1.79389 7.9995 1.79389C7.99095 1.79389 7.99095 1.79389 7.99095 1.79389C7.40106 1.77633 6.99925 1.6358 6.83682 1.53041C7.01635 1.41624 7.45236 1.26693 8.09354 1.26693C8.63213 1.26693 9.03394 1.37233 9.24767 1.47772C9.29897 1.50407 9.29897 1.56554 9.24767 1.59189C9.20493 1.60946 9.15363 1.62702 9.10234 1.65337C8.99975 1.6885 8.93135 1.78511 8.93135 1.89928V2.0925C8.93135 2.10128 8.93135 2.11007 8.93135 2.11885V4.81512C8.93135 5.03468 9.08524 5.21033 9.29042 5.24546C10.4189 5.43868 11.4875 5.91294 12.3937 6.61555C12.4707 6.67703 12.4536 6.79121 12.3681 6.83512C11.9064 7.02834 11.3935 7.37086 10.8378 7.8539C10.342 8.28425 9.82901 8.81999 9.32461 9.42599C9.17928 9.60165 8.96555 9.69826 8.73472 9.69826C8.51245 9.68947 8.29872 9.68947 8.07644 9.68947C6.0161 9.68947 4.06691 9.90904 2.59646 10.3043C2.10916 10.436 1.6988 10.5765 1.34829 10.7346C1.25425 10.7785 1.15166 10.6907 1.1773 10.5853C1.45942 9.53139 1.95527 8.54773 2.64775 7.71338ZM0.946477 12.0696C1.04907 11.8763 1.49362 11.4899 2.81018 11.1386C4.21224 10.761 6.07595 10.559 8.06789 10.559C8.21323 10.559 8.29872 10.7258 8.21323 10.8488C7.93966 11.244 7.66608 11.6568 7.40106 12.0783C7.11894 12.535 6.85392 12.9917 6.61454 13.4397C6.52905 13.5977 6.35807 13.7031 6.17854 13.6856C4.90472 13.5977 3.74204 13.4221 2.79309 13.1674C1.43378 12.8073 1.00632 12.4121 0.92083 12.2189C0.946477 12.175 0.946477 12.1223 0.946477 12.0696ZM6.0332 19.526C5.5801 19.2274 5.66559 17.6817 6.61454 15.4597C6.69148 15.284 6.58889 15.082 6.40936 15.0381L6.15289 14.9766C6.00755 14.9415 5.87077 15.0205 5.81093 15.1523C5.5288 15.8285 5.29798 16.4697 5.13554 17.0757C4.94746 17.7871 4.87052 18.3843 4.89617 18.8761C4.90472 18.9727 4.80213 19.043 4.71664 18.9903C2.77599 17.9188 1.37393 15.9691 1.01487 13.6504C0.997772 13.5538 1.10036 13.4748 1.18585 13.5187C1.56201 13.7031 2.02367 13.8788 2.57936 14.0281C4.04981 14.4233 5.99046 14.6429 8.05934 14.6429C8.93135 14.6429 9.78627 14.6077 10.5899 14.5287C10.7096 14.5199 10.8122 14.4321 10.8549 14.3179L10.9404 14.072C11.0173 13.8524 10.8464 13.6241 10.6155 13.6504C9.80336 13.7295 8.9399 13.7734 8.05079 13.7734C7.93111 13.7734 7.81142 13.7734 7.69173 13.7734C7.57204 13.7734 7.4951 13.6329 7.55495 13.5275C7.72593 13.2201 7.91401 12.8951 8.11064 12.579C8.47825 11.9817 8.86296 11.4109 9.25622 10.8839C9.38446 10.717 9.58109 10.6204 9.78627 10.638C10.8806 10.7083 11.8979 10.84 12.7785 11.0332C12.8896 11.0596 12.9494 11.1737 12.9067 11.2879C12.4878 12.3418 11.915 13.4748 11.214 14.6077C8.98265 18.2437 6.66584 19.9388 6.0332 19.526ZM8.19613 19.8598C8.07644 19.8598 8.02515 19.7017 8.11919 19.6314C8.25597 19.526 8.39276 19.4118 8.53809 19.2889C9.67513 18.2964 10.8891 16.7946 11.9663 15.0557C12.1287 14.801 12.2826 14.5375 12.4279 14.2828C12.8298 14.2125 13.2059 14.1247 13.5564 14.0281C14.1463 13.87 14.6251 13.6944 15.0098 13.4923C15.0953 13.4484 15.1979 13.5187 15.1893 13.6241C14.6678 17.0757 11.8124 19.7456 8.33292 19.8598C8.30727 19.8598 8.25597 19.8598 8.19613 19.8598Z" fill="black"/>
<path d="M33.6556 18.9814L30.8173 13.9314C30.672 13.6943 30.3727 13.6152 30.1334 13.7558C30.065 13.7997 30.0051 13.8612 29.9624 13.9314L27.1241 18.9814C27.0899 19.0429 27.0728 19.1132 27.0728 19.1834C27.0557 19.4645 27.2609 19.7104 27.5344 19.728H27.543C27.7396 19.728 27.8849 19.6313 28.0046 19.4206L28.4406 18.6389C28.5005 18.5335 28.6031 18.472 28.7228 18.472H32.0398C32.1509 18.472 32.2621 18.5335 32.3219 18.6389L32.7579 19.4206C32.8691 19.6226 33.0144 19.728 33.1939 19.728C33.4675 19.7367 33.6983 19.5172 33.7069 19.2361C33.7069 19.2273 33.7069 19.2273 33.7069 19.2186C33.7069 19.1395 33.6898 19.0517 33.6556 18.9814ZM31.3986 17.4269C31.3644 17.4445 31.3217 17.4533 31.2875 17.4533H29.4922C29.3725 17.4533 29.2699 17.3479 29.2699 17.2249C29.2699 17.1898 29.2784 17.1459 29.2955 17.1107L30.1932 15.5123C30.253 15.4069 30.3898 15.3718 30.4924 15.4333C30.5266 15.4508 30.5523 15.4772 30.5694 15.5123L31.467 17.1107C31.544 17.2249 31.5012 17.3654 31.3986 17.4269Z" fill="black"/>
<path d="M25.3711 18.7181H22.1054C21.9258 18.7181 21.7891 18.5688 21.7891 18.3931V14.2038C21.7891 13.9491 21.6095 13.7295 21.3616 13.6944C21.088 13.6593 20.8486 13.8613 20.8145 14.1335C20.8145 14.1511 20.8145 14.1687 20.8145 14.195V19.2362C20.8145 19.5173 21.0367 19.7369 21.3018 19.7369H25.3882C25.6618 19.7369 25.8755 19.5085 25.8755 19.2362C25.8755 19.2187 25.8755 19.1923 25.8755 19.1748C25.8413 18.9025 25.6276 18.7181 25.3711 18.7181Z" fill="black"/>
</svg>
