<?xml version="1.0" encoding="UTF-8"?>
<svg id="Layer_1" data-name="Layer 1" xmlns="http://www.w3.org/2000/svg" viewBox="0 0 840.04 214.44">
  <path d="M212.18,85.2c-.02-.09-.04-.19-.06-.28-4.24-20.13-14.2-38.63-29.09-53.52C162.78,11.15,135.86,0,107.22,0S51.66,11.15,31.4,31.4c-4.92,4.92-9.31,10.25-13.13,15.89-1.14,1.51-2.15,3.11-3.06,4.78C5.3,68.56,0,87.48,0,107.22c0,28.64,11.15,55.56,31.4,75.82,20.25,20.25,47.18,31.4,75.82,31.4s55.56-11.15,75.82-31.4c9.56-9.56,17.09-20.6,22.37-32.61,.65-1.33,1.21-2.69,1.7-4.08,4.81-12.3,7.34-25.52,7.34-39.12,0-7.49-.77-14.86-2.26-22.02Zm-37.25-49.31c.62,.59,1.23,1.18,1.83,1.79,9.48,9.48,16.78,20.55,21.66,32.61,.49,1.22-.54,2.49-1.83,2.26-2.82-.51-6-.73-9.52-.68-2.44,.04-4.56-1.67-4.99-4.07-1.91-10.72-4.68-20.63-8.23-29.27-.2-.49-.41-.98-.61-1.46-.45-1.05,.86-1.97,1.69-1.18Zm10.2,62.9c-.03-1.13,1.42-1.61,2.07-.69,.8,1.13,1.58,2.26,2.32,3.4,.99,1.51,1.9,3.02,2.76,4.51,.53,.93,.4,2.1-.32,2.9-1.15,1.26-2.39,2.57-3.75,3.92-.49,.49-1,.99-1.51,1.48-.64,.62-1.7,.15-1.67-.74,.06-1.61,.11-3.23,.14-4.86,.06-3.33,.05-6.64-.04-9.92ZM50.13,27.12c16.55-11.85,36.33-18.25,57.09-18.25,5.48,0,10.89,.45,16.19,1.32,1.42,.23,1.9,2.05,.76,2.93-5.14,4.03-9.91,9.99-14.13,17.71-1.03,1.89-3.22,2.81-5.28,2.22-13.99-3.94-27.76-5.79-40.48-5.35-4.69,.16-9.14,.64-13.31,1.41-1.17,.22-1.81-1.32-.84-2.01Zm-14.04,146.9c-2.07-3.9,.6-12.94,14.18-26.67h0c1.42-1.44,1.28-3.79-.3-5.03-.54-.43-1.08-.86-1.62-1.29-1.35-1.09-3.31-.99-4.54,.24-.27,.27-.47,.47-.53,.53-6.79,6.97-11.53,13.41-14.19,19.21-.75,1.64-3.03,1.82-4.03,.31-10.53-15.92-16.19-34.57-16.19-54.1,0-6.98,.73-13.85,2.14-20.52,.21-1.01,1.64-1.07,1.94-.09,2.04,6.74,5.36,13.7,9.95,20.75,6.18,9.49,14.32,18.61,23.98,26.97h0c3.3,2.86,6.78,5.62,10.41,8.28,7.36,5.4,15.35,10.38,23.86,14.8,3.77,1.96,7.44,3.83,11.2,5.52,2.09,.94,4.48,1.02,6.61,.18,1.77-.7,3.56-1.42,5.36-2.17,1.95-.82,3.01-2.95,2.5-5-.06-.26-.12-.46-.14-.58-2.96-12.46-4.61-26.49-4.8-41.19h0c0-.17,0-.35,0-.53,0-.8,0-1.61-.02-2.41,0-.26,0-.69,0-.95,0-.1,0-.2,0-.3,0,0,0,0,0,0,0-.92,.01-1.84,.03-2.76,.05-2.52,.14-5.02,.27-7.51,0,0,0,0,0,0,.91-17.73,3.92-34.39,8.7-48.41,.44-1.3-.25-2.7-1.55-3.15-1.26-.43-2.53-.85-3.79-1.24-1.28-.4-2.64,.29-3.07,1.56-5.18,15.22-8.38,33.28-9.24,52.39-.11,2.42-1.43,4.63-3.52,5.87-11.32,6.71-21.71,13.82-30.69,20.99-1.87,1.49-4.54,1.44-6.35-.13-9-7.8-16.57-16.28-22.3-25.07-11.25-17.28-13.93-33.56-7.53-45.82,.02-.03,.03-.06,.05-.09,.82-1.35,1.66-2.69,2.55-4.01,7.35-9.73,21.04-15.37,39.19-16.01,1.15-.04,2.3-.06,3.47-.06,11.13,0,23.08,1.84,35.23,5.34h0c.27,.07,.53,.15,.8,.23,.21,.06,.41,.12,.62,.18,0,0,0,0,0,0,2.81,.84,5.62,1.77,8.44,2.78,0,0,0,0,0,0,.07,.02,.13,.05,.2,.07,.73,.27,1.47,.54,2.2,.81,.23,.09,.46,.17,.69,.26,.22,.08,.44,.17,.66,.25,0,0,0,0,0,0,5.93,2.3,11.86,4.97,17.72,8.01,11.33,5.89,21.71,12.79,30.73,20.36-17.23,3.95-37.25,11.56-57.39,21.83-.93,.47-1.54,1.41-1.6,2.45-.07,1.25-.16,3.76-.23,5.75-.04,1.25,1.28,2.08,2.39,1.5h.01c19.94-10.47,39.83-18.3,56.92-22.43,3.19-.77,5.26-3.84,4.81-7.09-.31-2.27-.67-4.51-1.06-6.71-.49-2.76-2-5.23-4.24-6.93-8-6.1-16.82-11.69-26.26-16.59-6.36-3.31-12.82-6.2-19.29-8.67-1.38-.53-1.98-2.16-1.25-3.46,6.66-11.92,14.59-18.6,22.32-18.6,.08,0,.16,0,.24,0,9.11,.16,18.19,9.65,24.92,26.02,3.4,8.29,6.04,17.85,7.85,28.24,0,0-.02-.02-.03-.02,.77,4.43,1.39,9.02,1.85,13.72-.04,.03-.08,.05-.12,.07,.05,.06,.11,.11,.17,.17,.76,7.89,1.08,16.1,.93,24.48-.09,5.3-.38,10.53-.83,15.65-12.19,9.85-27.26,19.65-43.82,28.43-5.44,2.89-10.89,5.57-16.28,8.04-.08,.04-.17,.08-.25,.11-.41,.19-.83,.38-1.24,.57,0,0,0,0,0,0-4.47,2.02-8.89,3.89-13.24,5.6,0,0,0,0,0,0-.25,.1-.49,.19-.73,.28-.31,.12-.61,.24-.92,.35-.73,.28-1.46,.56-2.18,.83-.2,.07-.4,.15-.6,.23-.88,.33-1.76,.64-2.63,.96-.11,.04-.22,.08-.33,.12,0,0,0,0,0,0-9.32,3.32-18.2,5.83-26.29,7.39-19.55,3.76-28.76,.88-30.86-3.08Zm26.95-38.17c8.67-7.06,18.82-14.1,29.96-20.76,.24,14.25,1.8,27.92,4.57,40.28-4.13-1.76-8.25-3.7-12.33-5.82-7.91-4.11-15.35-8.71-22.19-13.69Zm56.87,68.91c-4.17,.54-8.41,.81-12.69,.81-19.12,0-37.4-5.42-53.1-15.53-1.08-.7-.62-2.37,.66-2.43,.27-.01,.51-.03,.73-.04,3.99-.26,8.36-.84,13.1-1.76,10.08-1.94,21.29-5.27,33.02-9.75,1.05-.4,2.23,.12,2.65,1.16,0,0,0,.01,0,.02,4.55,11.07,10.14,19.44,16.43,24.76,1.04,.88,.52,2.57-.83,2.75Zm41.58-26.26c-7.02,13.81-15.67,21.56-24.05,21.4-9.11-.16-18.19-9.65-24.92-26.02v-.02c-.43-1.04,.06-2.23,1.09-2.68,.07-.03,.14-.06,.21-.09,.44-.19,.94-.23,1.4-.1,12.58,3.53,24.98,5.37,36.6,5.37,1.26,0,2.52-.02,3.76-.07,1.46-.05,2.89-.13,4.29-.25,1.3-.1,2.21,1.27,1.62,2.44Zm3.03-11.88c-2.94,.43-6.02,.7-9.25,.81-7.88,.28-16.21-.4-24.77-1.98-1.04-.19-1.24-1.6-.3-2.08,1.87-.94,3.73-1.91,5.6-2.9,13.1-6.94,25.31-14.53,36.01-22.31,.8-.58,1.91,.1,1.74,1.08-1.48,8.91-3.54,17.31-6.12,24.92-.44,1.3-1.56,2.25-2.92,2.45Zm14.52,7.8c-.74,.79-1.49,1.57-2.26,2.34-1.34,1.34-2.71,2.63-4.11,3.88-.88,.79-2.22-.2-1.72-1.27,.14-.31,.28-.62,.43-.93,.59-1.3,1.16-2.63,1.71-3.99,.13-.32,.41-.56,.74-.65,1.39-.35,2.75-.75,4.08-1.17,1.07-.35,1.91,.96,1.14,1.78Zm19.77-31.2c-.47,1.2-.97,2.4-1.49,3.58-.08,.16-.16,.33-.24,.49-3.24,6.24-8.68,11.16-15.96,14.58-1.63,.77-3.42-.73-2.93-2.46,2.42-8.64,4.24-18.01,5.43-27.84,.22-1.83,1.12-3.51,2.52-4.72,2.99-2.59,5.78-5.17,8.35-7.74l.03-.03c1.26-1.26,3.42-.72,3.94,.99,2.54,8.44,2.68,16.3,.35,23.15Zm1.97-46.08c-.73,1.32-2.61,1.38-3.43,.11-.13-.2-.25-.39-.38-.59-2.93-4.5-6.31-8.93-10.08-13.22-.93-1.06-.17-2.71,1.24-2.71h.03c8.81,0,13.43,2.18,14.84,4.83,1.18,2.22,.82,6.11-2.22,11.58Zm4.76,13c-.02,.67-.92,.84-1.19,.23-.11-.26-.23-.53-.34-.79-.21-.49-.15-1.05,.16-1.47,.07-.09,.2-.26,.36-.47,.43-.56,1.05-.48,1.05,.15,0,.82-.02,1.53-.04,2.37Z"/>
  <g>
    <path d="M839.39,81.74l-31.99-55.5c-2.3-3.6-7.28-3.6-9.59,0l-31.99,55.5c-.39,.7-.58,1.39-.63,2.2-.2,3.13,2.23,5.93,5.37,6.01,2.19,.05,3.89-1.05,5.21-3.41l4.95-8.6c.65-1.13,1.85-1.82,3.14-1.82h37.38c1.3,0,2.5,.69,3.14,1.82l4.95,8.6c1.25,2.23,2.93,3.34,4.96,3.41,3.1,.1,5.73-2.42,5.73-5.53,0-.83-.18-1.66-.65-2.67Zm-26.68-16.69h-20.28c-1.91,0-3.1-2.07-2.14-3.72l10.17-17.56c.95-1.65,3.34-1.65,4.29,0l10.11,17.56c.95,1.65-.24,3.71-2.15,3.71Z"/>
    <path d="M517.59,34.63h36.97c3.26,0,5.89-2.87,5.49-6.21-.34-2.8-2.81-4.86-5.64-4.86h-45.95c-3.04,0-5.53,2.49-5.53,5.53v55.32c0,3.04,2.49,5.53,5.53,5.53h46.1c3.26,0,5.89-2.87,5.49-6.21-.34-2.8-2.81-4.86-5.64-4.86h-36.82c-1.98,0-3.59-1.61-3.59-3.59v-9.41c0-1.98,1.61-3.59,3.59-3.59h27.75c3.26,0,5.89-2.87,5.49-6.21-.34-2.8-2.81-4.86-5.64-4.86h-27.61c-1.98,0-3.59-1.61-3.59-3.59v-9.41c0-1.98,1.61-3.59,3.59-3.59Z"/>
    <path d="M630.59,56.11c-5.07-3.23-11.89-4.89-20.47-4.89-11.34,0-17.06-2.77-17.06-8.3s5.72-8.3,17.06-8.3c6.27,0,12.26,1.2,17.98,3.5,3.32,1.01,5.62-.18,6.91-3.41,1.11-2.86-.37-5.62-3.41-7.01-6.36-2.77-13.46-4.15-21.48-4.15s-15.12,1.75-20.37,5.16c-5.16,3.41-7.74,8.21-7.74,14.2,0,6.36,2.58,11.25,7.65,14.47,5.07,3.23,11.89,4.89,20.47,4.89,11.34,0,17.06,2.77,17.06,8.3s-5.72,8.3-17.06,8.3h-2.77c-5.72,0-11.71-1.2-17.89-3.5-2.86-1.01-5.81,.28-7.01,3.32-1.11,2.86,.55,6.18,3.41,7.19,6.36,2.67,13.46,4.06,21.48,4.06h2.77c8.39,0,15.12-1.75,20.28-5.16,5.25-3.41,7.84-8.21,7.84-14.2,0-6.36-2.58-11.25-7.65-14.47Z"/>
    <path d="M741.27,23.57c-3.04,0-5.53,2.49-5.53,5.53v55.32c0,3.04,2.49,5.53,5.53,5.53s5.53-2.49,5.53-5.53V29.1c0-3.04-2.49-5.53-5.53-5.53Z"/>
    <path d="M712.04,23.57h-55.17c-3.26,0-5.89,2.87-5.49,6.21,.34,2.8,2.81,4.86,5.64,4.86h18.38c1.99,0,3.6,1.61,3.6,3.6v46.18c0,3.26,2.87,5.89,6.21,5.49,2.8-.34,4.86-2.82,4.86-5.64V38.23c0-1.99,1.61-3.6,3.6-3.6h18.52c3.26,0,5.89-2.87,5.49-6.21-.34-2.8-2.81-4.86-5.64-4.86Z"/>
    <path d="M479.28,78.88h-36.81c-1.99,0-3.61-1.62-3.61-3.61V29.24c0-2.82-2.06-5.3-4.86-5.64-3.34-.4-6.2,2.23-6.2,5.49v55.32c0,3.04,2.49,5.53,5.53,5.53h46.1c3.26,0,5.89-2.87,5.49-6.21-.34-2.8-2.81-4.86-5.64-4.86Z"/>
    <path d="M299.03,34.63c6.18,0,11.34,2.21,15.58,6.55,1.01,1.01,2.4,1.57,3.96,1.57,3.04,0,5.53-2.49,5.53-5.53,0-1.57-.74-3.04-2.31-4.43-6.55-6.18-14.2-9.22-22.77-9.22-9.13,0-16.96,3.23-23.51,9.77-6.45,6.45-9.68,14.29-9.68,23.42s3.23,16.96,9.68,23.51c6.55,6.45,14.38,9.68,23.51,9.68s16.96-3.23,23.42-9.68c2.21-2.21,2.21-5.72,0-7.84-2.12-2.21-5.62-2.21-7.84,0-4.33,4.33-9.5,6.45-15.58,6.45s-11.34-2.12-15.67-6.45c-4.33-4.33-6.45-9.59-6.45-15.67s2.12-11.25,6.45-15.58c4.33-4.33,9.59-6.55,15.67-6.55Z"/>
    <path d="M362.63,34.63h36.96c3.26,0,5.89-2.87,5.49-6.21-.34-2.8-2.81-4.86-5.64-4.86h-45.95c-3.04,0-5.53,2.49-5.53,5.53v55.32c0,3.04,2.49,5.53,5.53,5.53h46.1c3.26,0,5.89-2.87,5.49-6.21-.34-2.8-2.81-4.86-5.64-4.86h-36.82c-1.99,0-3.6-1.61-3.6-3.6v-9.39c0-1.99,1.61-3.6,3.6-3.6h27.74c3.26,0,5.89-2.87,5.49-6.21-.34-2.8-2.81-4.86-5.64-4.86h-27.6c-1.99,0-3.6-1.61-3.6-3.6v-9.39c0-1.99,1.61-3.6,3.6-3.6Z"/>
    <g>
      <path d="M488.32,184.7c-3.64,3.73-8,5.64-13.18,5.73h-36.82c-3,0-5.46-2.45-5.46-5.46v-54.55c0-3,2.46-5.46,5.46-5.46h36.82c5.18,.09,9.55,2.09,13.18,5.82,3.64,3.73,5.46,8.09,5.46,13.27s-1.91,9.91-5.73,13.64c3.82,3.73,5.73,8.27,5.73,13.64s-1.82,9.64-5.46,13.37Zm-44.55-48.83v16.37h31.19c4.36-.27,7.91-3.73,7.91-8.18s-3.55-8.18-8.18-8.18h-30.91Zm0,27.28v16.37h30.91c4.64,0,8.18-3.55,8.18-8.18,0-4.36-3.55-7.91-7.91-8.18h-31.19Z"/>
      <path d="M266.15,130.42c0-3,2.46-5.46,5.46-5.46s5.46,2.45,5.46,5.46v49.1h40.01c3,0,5.46,2.45,5.46,5.46s-2.45,5.46-5.46,5.46h-45.46c-3,0-5.46-2.45-5.46-5.46v-54.55Z"/>
      <path d="M413.73,182.69l-31.99-55.5c-2.3-3.6-7.28-3.6-9.59,0l-31.99,55.5c-.39,.7-.58,1.39-.63,2.2-.2,3.13,2.23,5.93,5.37,6.01,2.19,.05,3.89-1.05,5.21-3.41l4.95-8.6c.65-1.13,1.85-1.82,3.14-1.82h37.38c1.3,0,2.5,.69,3.14,1.82l4.95,8.6c1.25,2.23,2.93,3.34,4.96,3.41,3.1,.1,5.73-2.42,5.73-5.53,0-.83-.18-1.66-.65-2.67Zm-26.68-16.69h-20.28c-1.91,0-3.1-2.07-2.14-3.72l10.17-17.56c.96-1.65,3.34-1.65,4.29,0l10.11,17.56c.95,1.65-.24,3.71-2.14,3.71Z"/>
      <path d="M560.84,157.05c-5.07-3.23-11.89-4.89-20.47-4.89-11.34,0-17.06-2.77-17.06-8.3s5.72-8.3,17.06-8.3c6.27,0,12.26,1.2,17.98,3.5,3.32,1.01,5.62-.18,6.91-3.41,1.11-2.86-.37-5.62-3.41-7.01-6.36-2.77-13.46-4.15-21.48-4.15s-15.12,1.75-20.37,5.16c-5.16,3.41-7.74,8.21-7.74,14.2,0,6.36,2.58,11.25,7.65,14.47,5.07,3.23,11.89,4.89,20.47,4.89,11.34,0,17.06,2.77,17.06,8.3s-5.72,8.3-17.06,8.3h-2.77c-5.72,0-11.71-1.2-17.89-3.5-2.86-1.01-5.81,.28-7.01,3.32-1.11,2.86,.55,6.18,3.41,7.19,6.36,2.67,13.46,4.06,21.48,4.06h2.77c8.39,0,15.12-1.75,20.28-5.16,5.25-3.41,7.84-8.21,7.84-14.2,0-6.36-2.58-11.25-7.65-14.47Z"/>
    </g>
  </g>
</svg>