<svg width="77" height="10" viewBox="0 0 77 10" fill="none" xmlns="http://www.w3.org/2000/svg">
<path d="M5.23768 7.07132H5.18147L1.73386 2.23087V9.55688H0.689941V0.49353H1.77401L5.22162 5.43904L8.66921 0.49353H9.7533V9.55688H8.68529V2.21549L5.23768 7.07132Z" fill="black"/>
<path d="M19.204 1.68942L17.0239 6.27963H21.3734L19.204 1.68942ZM24.0715 9.55688H22.914L21.797 7.18036H16.603L15.4697 9.55688H14.3662L18.7157 0.49353H19.7275L24.0769 9.55688H24.0742H24.0715Z" fill="black"/>
<path d="M33.7757 0.49353H34.9203L30.8622 9.55688H29.9177L25.8569 0.49353H27.0442L30.4006 8.24649L33.773 0.49353H33.7757Z" fill="black"/>
<path d="M47.1541 1.42882H41.1996V4.52169H46.5253V5.45441H41.1996V8.62415H47.2203V9.55688H40.0991V0.49353H47.1486V1.42626L47.1541 1.42882Z" fill="black"/>
<path d="M58.025 0.49353H59.035V9.55688H58.2096L52.2767 2.12581V9.55688H51.2666V0.49353H52.2377L58.025 7.75549V0.49353Z" fill="black"/>
<path d="M67.7596 0.49353H68.5844V9.55688H67.473V1.54694L65.615 2.07618L65.3477 1.25178L67.7596 0.49353Z" fill="black"/>
<path d="M76.1757 0.49353H76.9999V9.55688H75.8885V1.54694L74.0306 2.07618L73.7632 1.25178L76.1757 0.49353Z" fill="black"/>
</svg>
