<?xml version="1.0" encoding="UTF-8"?>
<svg width="171px" height="44px" viewBox="0 0 171 44" version="1.1" xmlns="http://www.w3.org/2000/svg" xmlns:xlink="http://www.w3.org/1999/xlink">
    <title>Group 3</title>
    <g id="CELESTIA" stroke="none" stroke-width="1" fill="none" fill-rule="evenodd">
        <g id="EVENT" transform="translate(-1267.000000, -1162.000000)" fill="#000000">
            <g id="Group-17" transform="translate(224.000000, 868.000000)">
                <g id="Group-5" transform="translate(0.000000, 22.000000)">
                    <g id="Group-3" transform="translate(1043.666667, 272.000000)">
                        <path d="M73.294193,17.5613481 L80.7648554,17.5613481 C81.4245875,17.5613481 81.9556865,16.9821092 81.8746086,16.30698 C81.806589,15.7406044 81.3056993,15.3252752 80.7352308,15.3252752 L71.4479175,15.3252752 C70.8330121,15.3252752 70.3299785,15.8283088 70.3299785,16.4434091 L70.3299785,27.6235786 C70.3299785,28.238679 70.8330121,28.7417125 71.4479175,28.7417125 L80.7648554,28.7417125 C81.4245875,28.7417125 81.9556865,28.1622787 81.8746086,27.4871495 C81.806589,26.9209688 81.3056993,26.5056396 80.7352308,26.5056396 L73.294193,26.5056396 C72.891922,26.5056396 72.5658565,26.1795741 72.5658565,25.7773032 L72.5658565,23.8795744 C72.5658565,23.4774984 72.891922,23.1514329 73.294193,23.1514329 L78.9014288,23.1514329 C79.5611609,23.1514329 80.0922599,22.5721939 80.0111821,21.8972597 C79.9431624,21.3306891 79.4422727,20.91536 78.8719991,20.91536 L73.294193,20.91536 C72.891922,20.91536 72.5658565,20.5894894 72.5658565,20.1872184 L72.5658565,18.2894897 C72.5658565,17.8874137 72.891922,17.5613481 73.294193,17.5613481 M60.439064,17.5613481 C61.6875851,17.5613481 62.7310728,18.0086407 63.5882373,18.8843206 C63.7932707,19.089354 64.0727555,19.2012259 64.3894659,19.2012259 C65.0043713,19.2012259 65.5075998,18.6979974 65.5075998,18.083092 C65.5075998,17.7663816 65.3585023,17.4681865 65.041597,17.1887018 C63.7186245,15.9401807 62.1721033,15.3252752 60.439064,15.3252752 C58.5943477,15.3252752 57.0104059,15.9776012 55.6874335,17.3005736 C54.3831713,18.6048358 53.7310402,20.1887776 53.7310402,22.0334939 C53.7310402,23.8782102 54.3831713,25.462152 55.6874335,26.7851244 C57.0104059,28.0893865 58.5943477,28.7417125 60.439064,28.7417125 C62.2839751,28.7417125 63.867722,28.0893865 65.1721791,26.7851244 C65.6192767,26.3378319 65.6192767,25.6297648 65.1721791,25.2011826 C64.7434019,24.754085 64.0355298,24.754085 63.5882373,25.2011826 C62.7125574,26.0770574 61.6690697,26.5056396 60.439064,26.5056396 C59.2092531,26.5056396 58.1472501,26.0770574 57.2713753,25.2011826 C56.3955005,24.3255027 55.9671131,23.2633047 55.9671131,22.0334939 C55.9671131,20.803683 56.3955005,19.7601953 57.2713753,18.8843206 C58.1472501,18.0086407 59.2092531,17.5613481 60.439064,17.5613481 M96.8720642,26.5056396 L89.4323907,26.5056396 C89.0295351,26.5056396 88.7028849,26.1789894 88.7028849,25.7761338 L88.7028849,16.4726439 C88.7028849,15.9021754 88.2873608,15.4012857 87.7209852,15.333461 C87.045856,15.252578 86.466812,15.783677 86.466812,16.4434091 L86.466812,27.6235786 C86.466812,28.238679 86.9698455,28.7417125 87.5849459,28.7417125 L96.9016888,28.7417125 C97.5616158,28.7417125 98.0927148,28.1622787 98.011637,27.4871495 C97.9434224,26.9209688 97.4425327,26.5056396 96.8720642,26.5056396 M143.917494,15.3252752 L132.766754,15.3252752 C132.106827,15.3252752 131.575923,15.9047091 131.657001,16.5796433 C131.725021,17.146019 132.22591,17.5613481 132.796184,17.5613481 L136.510564,17.5613481 C136.91264,17.5613481 137.2389,17.8874137 137.2389,18.2896846 L137.2389,27.6235786 C137.2389,28.2835057 137.818139,28.8146046 138.493463,28.7335268 C139.059644,28.6653122 139.474973,28.1644226 139.474973,27.593954 L139.474973,18.2896846 C139.474973,17.8874137 139.801038,17.5613481 140.203309,17.5613481 L143.946924,17.5613481 C144.606851,17.5613481 145.13795,16.9821092 145.057067,16.30698 C144.988852,15.7406044 144.487963,15.3252752 143.917494,15.3252752 M149.825459,15.3252752 C149.210553,15.3252752 148.707325,15.8283088 148.707325,16.4434091 L148.707325,27.6235786 C148.707325,28.238679 149.210553,28.7417125 149.825459,28.7417125 C150.440559,28.7417125 150.943592,28.238679 150.943592,27.6235786 L150.943592,16.4434091 C150.943592,15.8283088 150.440559,15.3252752 149.825459,15.3252752 M127.454985,21.9031066 C126.430013,21.2507807 125.051299,20.91536 123.31826,20.91536 C121.026446,20.91536 119.871086,20.3563905 119.871086,19.2382566 C119.871086,18.1203176 121.026446,17.5613481 123.31826,17.5613481 C124.585296,17.5613481 125.796592,17.8036072 126.951951,18.2694151 C127.622598,18.4744486 128.088601,18.2321895 128.349375,17.5800584 C128.572924,17.0023786 128.274924,16.4434091 127.660018,16.1639244 C126.374272,15.60476 124.939427,15.3252752 123.31826,15.3252752 C121.622446,15.3252752 120.262443,15.6794062 119.200245,16.3687629 C118.156757,17.0583146 117.635013,18.027156 117.635013,19.2382566 C117.635013,20.5241983 118.156757,21.51175 119.18173,22.1638811 C120.206507,22.8160122 121.585415,23.1514329 123.31826,23.1514329 C125.610269,23.1514329 126.765628,23.7104024 126.765628,24.8285363 C126.765628,25.9464752 125.610269,26.5056396 123.31826,26.5056396 L122.75929,26.5056396 C121.604126,26.5056396 120.39283,26.2633805 119.144114,25.7973777 C118.566824,25.5925392 117.970434,25.8533137 117.728175,26.468414 C117.504431,27.0460938 117.839852,27.7167402 118.417532,27.9217737 C119.703473,28.4620329 121.138123,28.7417125 122.75929,28.7417125 L123.31826,28.7417125 C125.014073,28.7417125 126.374272,28.3875816 127.417759,27.6980299 C128.479957,27.0086732 129.001701,26.0396368 129.001701,24.8285363 C129.001701,23.5427895 128.479957,22.5552377 127.454985,21.9031066 M104.615195,17.5613481 L112.087611,17.5613481 C112.747539,17.5613481 113.278637,16.9821092 113.19756,16.30698 C113.12954,15.7406044 112.62865,15.3252752 112.058182,15.3252752 L102.770869,15.3252752 C102.155768,15.3252752 101.652735,15.8283088 101.652735,16.4434091 L101.652735,27.6235786 C101.652735,28.238679 102.155768,28.7417125 102.770869,28.7417125 L112.087611,28.7417125 C112.747539,28.7417125 113.278637,28.1622787 113.19756,27.4871495 C113.129345,26.9209688 112.62865,26.5056396 112.058182,26.5056396 L104.615195,26.5056396 C104.214093,26.5056396 103.888808,26.1803537 103.888808,25.7792522 L103.888808,23.8780153 C103.888808,23.4767188 104.214093,23.1514329 104.615195,23.1514329 L110.22438,23.1514329 C110.884307,23.1514329 111.415016,22.5721939 111.334133,21.8972597 C111.266113,21.3306891 110.765224,20.91536 110.194755,20.91536 L104.615195,20.91536 C104.214093,20.91536 103.888808,20.5902689 103.888808,20.1889725 L103.888808,18.2877356 C103.888808,17.8864392 104.214093,17.5613481 104.615195,17.5613481 M41.5393464,22.2619152 C41.5352535,22.3962004 41.3524386,22.4316719 41.299621,22.3079113 C41.2770128,22.254509 41.2538198,22.2009119 41.2302371,22.1473147 C41.1871644,22.0492807 41.1992482,21.9352649 41.2635647,21.8495095 C41.2768179,21.8319686 41.3039088,21.7964971 41.336262,21.754204 C41.4231868,21.6405781 41.5485067,21.6575343 41.5485067,21.7836337 C41.5485067,21.9491027 41.5446087,22.0923533 41.5393464,22.2619152 M40.5773264,19.6346806 C40.4292034,19.9014969 40.0493458,19.9137755 39.8848513,19.6565092 C39.8593195,19.6167499 39.8335929,19.5769906 39.8076714,19.5370363 C39.2147895,18.6266645 38.5324491,17.7330539 37.7703952,16.8645852 C37.5832924,16.651366 37.7362879,16.316725 38.0200604,16.3165301 L38.0268819,16.3165301 C39.8076714,16.3165301 40.7412362,16.7564165 41.0261781,17.2935573 C41.2639545,17.7427988 41.1910624,18.5284355 40.5773264,19.6346806 M40.1793432,28.9473307 C40.0838429,29.1903694 39.9838598,29.4318489 39.8788094,29.6709896 C39.8624379,29.7039274 39.8470409,29.7372551 39.8300847,29.7699981 C39.1746404,31.0315775 38.074827,32.0249762 36.6050958,32.7162819 C36.2753272,32.8712264 35.9145697,32.5695232 36.0127986,32.2187055 C36.500825,30.4720233 36.8701581,28.5778027 37.1094937,26.5919798 C37.1541255,26.2216722 37.3367456,25.8817689 37.6189589,25.6377557 C38.2233398,25.1148425 38.7877664,24.5927088 39.3069766,24.0742783 L39.3126287,24.0684313 C39.5681409,23.8135038 40.0039344,23.9232318 40.1080103,24.2689821 C40.6209837,25.9741509 40.6494389,27.5623804 40.1793432,28.9473307 M36.1843095,35.2534733 C36.0348222,35.4132902 35.8822165,35.5711582 35.7266873,35.7266873 C35.4557781,35.9972067 35.1784373,36.2589557 34.8950545,36.5117393 C34.7163324,36.6709716 34.4460079,36.4717851 34.5471604,36.2546679 C34.5760054,36.1926901 34.6046555,36.1303226 34.6331107,36.0673703 C34.7521938,35.8048417 34.867184,35.5354917 34.9790559,35.2610743 C35.0055621,35.1963679 35.0613031,35.1480331 35.1291279,35.1306871 C35.4109514,35.0591593 35.6857586,34.9802253 35.9533545,34.8938852 C36.1702768,34.8241114 36.3402285,35.0870298 36.1843095,35.2534733 M33.2504992,33.6767427 C32.6572276,33.7626931 32.0333568,33.8182392 31.380641,33.8412372 C29.7881237,33.8969783 28.1041989,33.7595747 26.3744728,33.4411102 C26.1635924,33.4023253 26.1230535,33.1171885 26.3142491,33.0205188 C26.691573,32.829518 27.0690918,32.6342295 27.4464157,32.4342635 C30.0931402,31.0313826 32.5627017,29.4979195 34.7245182,27.9256716 C34.8866739,27.8077579 35.1100278,27.9469156 35.0770899,28.1447378 C34.7773357,29.9465763 34.3622015,31.6427798 33.8408474,33.1824796 C33.7519736,33.4448133 33.5247217,33.6369834 33.2504992,33.6767427 M32.6387122,36.0773101 C31.2196547,38.8682596 29.471998,40.4352452 27.7779384,40.4036716 C25.9367303,40.3709287 24.1007845,38.4535152 22.7411711,35.1435504 L22.7396119,35.1398473 C22.6532718,34.9297465 22.7524752,34.6892415 22.960627,34.5988085 C22.9750495,34.5923769 22.989472,34.5861401 23.0038946,34.5797084 C23.0931582,34.5409236 23.1933361,34.5339072 23.2872773,34.5604135 C25.8305105,35.2741325 28.3363232,35.646584 30.6840731,35.646584 C30.9391955,35.646584 31.1925638,35.6422962 31.4437882,35.6335258 C31.7378904,35.6230012 32.027315,35.6064348 32.3116722,35.5838266 C32.5753701,35.5629724 32.7587698,35.8414827 32.6387122,36.0773101 M24.2354595,41.3847917 C23.391743,41.4931554 22.535553,41.5487016 21.6709823,41.5487016 C17.8073103,41.5487016 14.1118359,40.4537606 10.9390798,38.4106374 C10.7207933,38.2699206 10.813565,37.9311866 11.0729752,37.9192978 C11.1267673,37.9167641 11.1770511,37.9140355 11.2212931,37.911307 C12.0275891,37.8588792 12.9116496,37.7407706 13.8695768,37.5562015 C15.9072428,37.1642602 18.1723556,36.4918597 20.544078,35.5863603 C20.7567124,35.5052824 20.9940991,35.6107226 21.0806341,35.8212132 C21.0812188,35.8225775 21.0816086,35.8237469 21.0821933,35.8249163 C22.0013356,38.0627433 23.1325277,39.7536844 24.4026826,40.8293304 C24.6125885,41.0072729 24.5083177,41.34971 24.2354595,41.3847917 M12.7405286,27.45733 C14.4920833,26.0310613 16.5443667,24.6079109 18.7956416,23.2605761 C18.8439765,26.1400097 19.1597124,28.9044529 19.718487,31.4014952 C18.883541,31.0454153 18.0511286,30.6532791 17.2259274,30.2246968 C15.6275631,29.3940385 14.1237247,28.4635921 12.7405286,27.45733 M7.29330457,35.1725903 C6.87544174,34.384225 7.41550606,32.5580241 10.1590952,29.7824716 L10.1604595,29.7811073 C10.4469606,29.4916828 10.4194798,29.0167146 10.0996511,28.7647106 C9.9897282,28.6783704 9.88058492,28.5910558 9.77222124,28.5037412 C9.49897325,28.282921 9.10352377,28.3031904 8.85541771,28.5516863 C8.80104097,28.606063 8.76050204,28.6469918 8.74861322,28.6592704 C7.37711101,30.0670237 6.41723487,31.3701165 5.87950934,32.5422373 C5.72709855,32.8743447 5.2667478,32.9102061 5.06522253,32.6053845 C2.93673374,29.3878017 1.79345791,25.6174862 1.79345791,21.6709823 C1.79345791,20.2601105 1.94002174,18.8716521 2.22515855,17.5229531 C2.26823117,17.3188941 2.55609656,17.3058359 2.61651516,17.5054122 C3.02892083,18.8669746 3.70015198,20.2753126 4.62767493,21.6994375 C5.87619606,23.616851 7.52270035,25.4600081 9.47383132,27.1507544 C10.1398002,27.7278494 10.8431896,28.2860393 11.5767884,28.8245445 C13.0638655,29.9157823 14.6797707,30.922824 16.3989722,31.8160448 C17.1610262,32.2120789 17.9032005,32.5899875 18.6633054,32.9322297 C19.0864305,33.1226457 19.5680252,33.137458 19.9999208,32.9678961 C20.3583395,32.827569 20.7192919,32.6815899 21.0823882,32.5297638 C21.477253,32.3650744 21.6914466,31.9345432 21.586786,31.5196038 C21.5737278,31.4677608 21.5633982,31.4260524 21.5575512,31.4014952 C20.9590173,28.8826243 20.6263252,26.047043 20.5871506,23.0769816 L20.5859812,23.0775663 C20.5855914,23.0422896 20.5857863,23.0064282 20.5853965,22.9707618 C20.5836424,22.8084111 20.5846169,22.6448911 20.5816934,22.4829303 C20.5807189,22.4312821 20.5822781,22.3437726 20.5828628,22.2919296 C20.5832526,22.2712703 20.5828628,22.2508059 20.5828628,22.2303416 C20.5830577,22.2303416 20.5834475,22.2301467 20.5836424,22.2301467 C20.5846169,22.0442133 20.5859812,21.8584748 20.5892945,21.6719568 C20.5984547,21.1624916 20.6167752,20.6567294 20.6430865,20.1550601 C20.6426967,20.155255 20.6425018,20.1554499 20.642112,20.1556448 C20.8266811,16.5716525 21.4343753,13.2039977 22.4012677,10.371145 C22.4907263,10.1090062 22.3509839,9.82445409 22.0888451,9.73499559 C21.8333329,9.64768096 21.5780156,9.56426432 21.3230881,9.48435585 C21.0652371,9.40347288 20.7896503,9.54263056 20.7025306,9.79853256 C19.6545602,12.8750087 19.0078863,16.5248768 18.835401,20.3871845 C18.8133774,20.8771598 18.546756,21.3230881 18.1248003,21.5731431 C15.8372741,22.9288585 13.736461,24.3660416 11.9215642,25.8147237 C11.5434607,26.1166218 11.0033964,26.1051228 10.6377664,25.7880226 C8.81877676,24.2109023 7.2878474,22.4979375 6.13053887,20.7206562 C3.85626584,17.2284611 3.31581173,13.9385709 4.60915955,11.4586798 C4.61266773,11.4528328 4.61578611,11.4467909 4.61909939,11.4411389 C4.7839837,11.1675011 4.95549456,10.8975664 5.13402178,10.6313347 C6.62012443,8.66422208 9.3861269,7.52425954 13.0545104,7.39543149 C13.2866347,7.38724574 13.5203183,7.38315287 13.7561457,7.38315287 C16.0062513,7.38315287 18.4210463,7.75443491 20.8769649,8.46308661 L20.8775496,8.46250192 C20.9313417,8.47809381 20.9851337,8.49427041 21.0389258,8.5100572 C21.0804392,8.52233582 21.1219526,8.53383485 21.163466,8.54630836 C21.1632711,8.54650326 21.1632711,8.54650326 21.1632711,8.54669816 C21.7308162,8.71626004 22.3001153,8.90394749 22.8699991,9.10898093 C22.870194,9.10878604 22.870194,9.10878604 22.870194,9.10859114 C22.8834471,9.11326871 22.8967003,9.11853097 22.9099534,9.12320854 C23.0584662,9.17680568 23.2067841,9.23176712 23.355102,9.28770305 C23.4014879,9.30524393 23.4480687,9.32297972 23.4944546,9.3409104 C23.5390864,9.35806148 23.5837182,9.37462787 23.6285449,9.39197386 L23.6279602,9.39275345 C24.8273669,9.85700218 26.025799,10.3968716 27.209224,11.0119719 C29.4998685,12.2020234 31.5965888,13.5971084 33.4212305,15.1276479 C29.9389753,15.9253684 25.8913189,17.4642886 21.821639,19.5391802 C21.6339515,19.6350704 21.5103857,19.8237323 21.4984969,20.0342229 C21.4842693,20.2864219 21.465559,20.7935483 21.452111,21.1965988 C21.4437304,21.4495774 21.7113263,21.6171902 21.9354598,21.4994714 L21.9377986,21.4981071 C25.9671345,19.3822868 29.9884796,17.8008786 33.4418898,16.965153 C34.0873943,16.8090391 34.5052571,16.1890663 34.4146292,15.5312832 C34.3510923,15.071712 34.2795644,14.6193521 34.2004356,14.1749831 C34.1010372,13.6167932 33.795436,13.1176576 33.3444404,12.774246 C31.726976,11.5420964 29.9444325,10.4118788 28.0361792,9.42023417 C26.7502375,8.7521214 25.4453907,8.16664568 24.1378152,7.66731519 C23.8581356,7.5605107 23.7382729,7.22996249 23.884252,6.96860332 C25.2313919,4.55868079 26.8336542,3.20900723 28.3945979,3.20900723 C28.4107745,3.20900723 28.4269511,3.20900723 28.4431277,3.20939703 C30.2843358,3.24233491 32.1202816,5.15955351 33.479895,8.46951827 C34.1680824,10.1450625 34.7013252,12.0772883 35.0657858,14.1771269 C35.0638368,14.1753729 35.0618878,14.1738137 35.0601338,14.1720596 C35.2156629,15.0682038 35.3409828,15.9943625 35.4339495,16.9444937 C35.4259586,16.9495611 35.4173831,16.9540437 35.4093922,16.9591111 C35.4203066,16.9702203 35.4318056,16.9813296 35.4429148,16.9926337 C35.5970797,18.5869051 35.6621759,20.2470523 35.6317717,21.9411119 C35.6126716,23.012665 35.5555663,24.0694058 35.4631843,25.1033434 C32.9998595,27.0940388 29.9541774,29.0751842 26.6064023,30.8493472 C25.5061991,31.4324841 24.4061908,31.975277 23.3169019,32.4749973 C23.2999457,32.4827932 23.2831844,32.4903943 23.2662282,32.4981902 C23.1830065,32.5361955 23.0995898,32.5747854 23.0163681,32.6124009 C23.0155885,32.612206 23.0150038,32.6120111 23.0144191,32.6118162 C22.1118432,33.020129 21.2178428,33.3978427 20.3386547,33.7428134 C20.3388496,33.7430083 20.3388496,33.7433981 20.3390445,33.743593 C20.2893453,33.7630828 20.240036,33.7817931 20.1905317,33.8010881 C20.1287488,33.8252555 20.0669659,33.8490332 20.0053779,33.8728108 C19.8578396,33.9293314 19.710886,33.9850725 19.5643221,34.039839 C19.5239781,34.0548462 19.4834392,34.070633 19.4430951,34.0854453 C19.2651526,34.151516 19.0881846,34.2156376 18.9118013,34.2787848 C18.8897777,34.2865808 18.8677542,34.2949614 18.8459255,34.3027574 C18.8455357,34.3025625 18.8453408,34.3025625 18.8451459,34.3023676 C16.9610601,34.9734038 15.1662379,35.4803354 13.5306479,35.7950968 C9.57829702,36.5559813 7.71720926,35.9722597 7.29330457,35.1725903 M10.1320043,5.48152617 C13.4772457,3.08602615 17.4746182,1.79345791 21.6709823,1.79345791 C22.7785916,1.79345791 23.8719734,1.88408581 24.9433316,2.06085894 C25.2302225,2.10821933 25.3265025,2.474434 25.0976914,2.65393571 C24.059466,3.46783272 23.0949122,4.67211184 22.2412559,6.23383519 C22.0329092,6.61486216 21.5910738,6.80118533 21.173211,6.68346651 C18.3450358,5.88730528 15.562467,5.51270997 12.9915581,5.60294807 C12.043181,5.63627575 11.1450877,5.73236081 10.3013712,5.88788998 C10.0643744,5.93154729 9.93613105,5.62165834 10.1320043,5.48152617 M37.4174336,19.9683472 C37.4115867,19.7405106 37.7039347,19.6432561 37.8360761,19.8287997 C37.9984267,20.0566363 38.1549303,20.2856423 38.3048075,20.5158176 C38.5039939,20.8218086 38.6893426,21.1260455 38.8616331,21.4283334 C38.9690222,21.6168004 38.9432956,21.8532126 38.7971216,22.0134193 C38.5649972,22.2683468 38.3131881,22.5318499 38.0397452,22.8050979 C37.9399571,22.9046911 37.8382199,23.0044792 37.7345338,23.1044623 C37.6059007,23.2288077 37.3901478,23.1340869 37.3971642,22.9551699 C37.4098326,22.6291043 37.4191877,22.3018694 37.4250347,21.9730753 C37.4371184,21.2995053 37.4341949,20.6308079 37.4174336,19.9683472 M35.35599,7.25432482 C35.4809201,7.37282324 35.6044858,7.49327064 35.7266873,7.61547213 C37.6421518,9.53093664 39.1175351,11.7691534 40.1041123,14.2067516 C40.2037056,14.4525188 39.994969,14.7097851 39.7339997,14.6628145 C39.1631414,14.5602978 38.5207552,14.5144966 37.8095698,14.5263854 C37.316671,14.5345712 36.8882836,14.1892107 36.8017486,13.7039129 C36.4152645,11.5368341 35.8564899,9.53502951 35.1388728,7.78795749 C35.0979441,7.68836425 35.0566256,7.5899404 35.0147224,7.49249105 C34.9235098,7.27985656 35.1881822,7.09489768 35.35599,7.25432482 M42.8740128,17.1637548 C42.0176278,13.0948544 40.0039344,9.35630739 36.9946983,6.34707134 C32.9016306,2.25400356 27.4596688,0 21.6709823,0 C15.8824906,0 10.440334,2.25400356 6.34726624,6.34707134 C5.35172363,7.34261394 4.4662988,8.41825991 3.69430502,9.55880715 C3.46471434,9.86440833 3.2590962,10.1871606 3.07628121,10.5249201 C1.0709684,13.8571033 0,17.6817955 0,21.6709823 C0,27.4596688 2.25419846,32.9016306 6.34726624,36.9946983 C10.440334,41.0877661 15.8824906,43.3421595 21.6709823,43.3421595 C27.4596688,43.3421595 32.9016306,41.0877661 36.9946983,36.9946983 C38.9265343,35.0630572 40.4481085,32.8306874 41.5169331,30.4034189 C41.6475152,30.1344587 41.7615309,29.8590668 41.859565,29.5782178 C42.8324993,27.0920899 43.3421595,24.4208082 43.3421595,21.6709823 C43.3421595,20.1573989 43.1866303,18.6681779 42.8859016,17.2198856 C42.8818087,17.2011753 42.8781056,17.182465 42.8740128,17.1637548 M164.263945,23.7104024 L160.16464,23.7104024 C159.779325,23.7104024 159.538626,23.2931242 159.73177,22.9594576 L161.787952,19.4103522 C161.980901,19.0770754 162.462106,19.077855 162.654471,19.4115216 L164.697399,22.9608219 C164.889375,23.2942936 164.648675,23.7104024 164.263945,23.7104024 M169.656987,27.0833194 L163.191027,15.8657294 C162.725414,15.1389521 161.719152,15.1389521 161.253149,15.8657294 L154.787385,27.0833194 C154.70923,27.2238414 154.670446,27.3643634 154.659921,27.5271038 C154.618992,28.1605246 155.111112,28.7267053 155.745702,28.7413227 C156.188512,28.7516524 156.532898,28.5284933 156.799909,28.0523558 L157.799544,26.3142491 C157.930321,26.0868023 158.17258,25.9464752 158.435109,25.9464752 L165.990747,25.9464752 C166.253081,25.9464752 166.495535,26.0868023 166.626312,26.3142491 L167.625947,28.0523558 C167.878536,28.5033514 168.218634,28.7274849 168.629286,28.7409329 C169.25686,28.7617871 169.787569,28.2515423 169.787569,27.6235786 C169.787569,27.4559657 169.750343,27.288158 169.656987,27.0833194" id="Fill-1"></path>
                    </g>
                </g>
            </g>
        </g>
    </g>
</svg>